<?xml version="1.0" encoding="utf-8"?>
<svg xmlns="http://www.w3.org/2000/svg" xmlns:xlink="http://www.w3.org/1999/xlink" width="600" height="400" viewBox="0 0 2400 1600">
<defs>
  <clipPath id="clip020">
    <rect x="0" y="0" width="2400" height="1600"/>
  </clipPath>
</defs>
<path clip-path="url(#clip020)" d="
M0 1600 L2400 1600 L2400 0 L0 0  Z
  " fill="#ffffff" fill-rule="evenodd" fill-opacity="1"/>
<defs>
  <clipPath id="clip021">
    <rect x="480" y="0" width="1681" height="1600"/>
  </clipPath>
</defs>
<path clip-path="url(#clip020)" d="
M194.422 1486.45 L2352.76 1486.45 L2352.76 47.2441 L194.422 47.2441  Z
  " fill="#ffffff" fill-rule="evenodd" fill-opacity="1"/>
<defs>
  <clipPath id="clip022">
    <rect x="194" y="47" width="2159" height="1440"/>
  </clipPath>
</defs>
<polyline clip-path="url(#clip022)" style="stroke:#000000; stroke-linecap:round; stroke-linejoin:round; stroke-width:2; stroke-opacity:0.1; fill:none" points="
  346.741,1486.45 346.741,47.2441 
  "/>
<polyline clip-path="url(#clip022)" style="stroke:#000000; stroke-linecap:round; stroke-linejoin:round; stroke-width:2; stroke-opacity:0.1; fill:none" points="
  666.834,1486.45 666.834,47.2441 
  "/>
<polyline clip-path="url(#clip022)" style="stroke:#000000; stroke-linecap:round; stroke-linejoin:round; stroke-width:2; stroke-opacity:0.1; fill:none" points="
  986.928,1486.45 986.928,47.2441 
  "/>
<polyline clip-path="url(#clip022)" style="stroke:#000000; stroke-linecap:round; stroke-linejoin:round; stroke-width:2; stroke-opacity:0.1; fill:none" points="
  1307.02,1486.45 1307.02,47.2441 
  "/>
<polyline clip-path="url(#clip022)" style="stroke:#000000; stroke-linecap:round; stroke-linejoin:round; stroke-width:2; stroke-opacity:0.1; fill:none" points="
  1627.11,1486.45 1627.11,47.2441 
  "/>
<polyline clip-path="url(#clip022)" style="stroke:#000000; stroke-linecap:round; stroke-linejoin:round; stroke-width:2; stroke-opacity:0.1; fill:none" points="
  1947.21,1486.45 1947.21,47.2441 
  "/>
<polyline clip-path="url(#clip022)" style="stroke:#000000; stroke-linecap:round; stroke-linejoin:round; stroke-width:2; stroke-opacity:0.1; fill:none" points="
  2267.3,1486.45 2267.3,47.2441 
  "/>
<polyline clip-path="url(#clip020)" style="stroke:#000000; stroke-linecap:round; stroke-linejoin:round; stroke-width:4; stroke-opacity:1; fill:none" points="
  194.422,1486.45 2352.76,1486.45 
  "/>
<polyline clip-path="url(#clip020)" style="stroke:#000000; stroke-linecap:round; stroke-linejoin:round; stroke-width:4; stroke-opacity:1; fill:none" points="
  346.741,1486.45 346.741,1467.55 
  "/>
<polyline clip-path="url(#clip020)" style="stroke:#000000; stroke-linecap:round; stroke-linejoin:round; stroke-width:4; stroke-opacity:1; fill:none" points="
  666.834,1486.45 666.834,1467.55 
  "/>
<polyline clip-path="url(#clip020)" style="stroke:#000000; stroke-linecap:round; stroke-linejoin:round; stroke-width:4; stroke-opacity:1; fill:none" points="
  986.928,1486.45 986.928,1467.55 
  "/>
<polyline clip-path="url(#clip020)" style="stroke:#000000; stroke-linecap:round; stroke-linejoin:round; stroke-width:4; stroke-opacity:1; fill:none" points="
  1307.02,1486.45 1307.02,1467.55 
  "/>
<polyline clip-path="url(#clip020)" style="stroke:#000000; stroke-linecap:round; stroke-linejoin:round; stroke-width:4; stroke-opacity:1; fill:none" points="
  1627.11,1486.45 1627.11,1467.55 
  "/>
<polyline clip-path="url(#clip020)" style="stroke:#000000; stroke-linecap:round; stroke-linejoin:round; stroke-width:4; stroke-opacity:1; fill:none" points="
  1947.21,1486.45 1947.21,1467.55 
  "/>
<polyline clip-path="url(#clip020)" style="stroke:#000000; stroke-linecap:round; stroke-linejoin:round; stroke-width:4; stroke-opacity:1; fill:none" points="
  2267.3,1486.45 2267.3,1467.55 
  "/>
<path clip-path="url(#clip020)" d="M309.542 1517.37 Q305.931 1517.37 304.103 1520.93 Q302.297 1524.47 302.297 1531.6 Q302.297 1538.71 304.103 1542.27 Q305.931 1545.82 309.542 1545.82 Q313.177 1545.82 314.982 1542.27 Q316.811 1538.71 316.811 1531.6 Q316.811 1524.47 314.982 1520.93 Q313.177 1517.37 309.542 1517.37 M309.542 1513.66 Q315.352 1513.66 318.408 1518.27 Q321.487 1522.85 321.487 1531.6 Q321.487 1540.33 318.408 1544.94 Q315.352 1549.52 309.542 1549.52 Q303.732 1549.52 300.653 1544.94 Q297.598 1540.33 297.598 1531.6 Q297.598 1522.85 300.653 1518.27 Q303.732 1513.66 309.542 1513.66 Z" fill="#000000" fill-rule="evenodd" fill-opacity="1" /><path clip-path="url(#clip020)" d="M329.704 1542.97 L334.588 1542.97 L334.588 1548.85 L329.704 1548.85 L329.704 1542.97 Z" fill="#000000" fill-rule="evenodd" fill-opacity="1" /><path clip-path="url(#clip020)" d="M357.621 1518.36 L345.815 1536.81 L357.621 1536.81 L357.621 1518.36 M356.394 1514.29 L362.273 1514.29 L362.273 1536.81 L367.204 1536.81 L367.204 1540.7 L362.273 1540.7 L362.273 1548.85 L357.621 1548.85 L357.621 1540.7 L342.019 1540.7 L342.019 1536.19 L356.394 1514.29 Z" fill="#000000" fill-rule="evenodd" fill-opacity="1" /><path clip-path="url(#clip020)" d="M374.982 1514.29 L393.338 1514.29 L393.338 1518.22 L379.264 1518.22 L379.264 1526.7 Q380.283 1526.35 381.301 1526.19 Q382.32 1526 383.338 1526 Q389.125 1526 392.505 1529.17 Q395.884 1532.34 395.884 1537.76 Q395.884 1543.34 392.412 1546.44 Q388.94 1549.52 382.621 1549.52 Q380.445 1549.52 378.176 1549.15 Q375.931 1548.78 373.523 1548.04 L373.523 1543.34 Q375.607 1544.47 377.829 1545.03 Q380.051 1545.58 382.528 1545.58 Q386.533 1545.58 388.871 1543.48 Q391.209 1541.37 391.209 1537.76 Q391.209 1534.15 388.871 1532.04 Q386.533 1529.94 382.528 1529.94 Q380.653 1529.94 378.778 1530.35 Q376.926 1530.77 374.982 1531.65 L374.982 1514.29 Z" fill="#000000" fill-rule="evenodd" fill-opacity="1" /><path clip-path="url(#clip020)" d="M629.138 1517.37 Q625.527 1517.37 623.698 1520.93 Q621.893 1524.47 621.893 1531.6 Q621.893 1538.71 623.698 1542.27 Q625.527 1545.82 629.138 1545.82 Q632.772 1545.82 634.578 1542.27 Q636.406 1538.71 636.406 1531.6 Q636.406 1524.47 634.578 1520.93 Q632.772 1517.37 629.138 1517.37 M629.138 1513.66 Q634.948 1513.66 638.004 1518.27 Q641.082 1522.85 641.082 1531.6 Q641.082 1540.33 638.004 1544.94 Q634.948 1549.52 629.138 1549.52 Q623.328 1549.52 620.249 1544.94 Q617.194 1540.33 617.194 1531.6 Q617.194 1522.85 620.249 1518.27 Q623.328 1513.66 629.138 1513.66 Z" fill="#000000" fill-rule="evenodd" fill-opacity="1" /><path clip-path="url(#clip020)" d="M649.3 1542.97 L654.184 1542.97 L654.184 1548.85 L649.3 1548.85 L649.3 1542.97 Z" fill="#000000" fill-rule="evenodd" fill-opacity="1" /><path clip-path="url(#clip020)" d="M664.415 1514.29 L682.772 1514.29 L682.772 1518.22 L668.698 1518.22 L668.698 1526.7 Q669.716 1526.35 670.735 1526.19 Q671.753 1526 672.772 1526 Q678.559 1526 681.939 1529.17 Q685.318 1532.34 685.318 1537.76 Q685.318 1543.34 681.846 1546.44 Q678.374 1549.52 672.054 1549.52 Q669.878 1549.52 667.61 1549.15 Q665.365 1548.78 662.957 1548.04 L662.957 1543.34 Q665.04 1544.47 667.263 1545.03 Q669.485 1545.58 671.962 1545.58 Q675.966 1545.58 678.304 1543.48 Q680.642 1541.37 680.642 1537.76 Q680.642 1534.15 678.304 1532.04 Q675.966 1529.94 671.962 1529.94 Q670.087 1529.94 668.212 1530.35 Q666.36 1530.77 664.415 1531.65 L664.415 1514.29 Z" fill="#000000" fill-rule="evenodd" fill-opacity="1" /><path clip-path="url(#clip020)" d="M704.531 1517.37 Q700.92 1517.37 699.091 1520.93 Q697.286 1524.47 697.286 1531.6 Q697.286 1538.71 699.091 1542.27 Q700.92 1545.82 704.531 1545.82 Q708.165 1545.82 709.971 1542.27 Q711.799 1538.71 711.799 1531.6 Q711.799 1524.47 709.971 1520.93 Q708.165 1517.37 704.531 1517.37 M704.531 1513.66 Q710.341 1513.66 713.397 1518.27 Q716.475 1522.85 716.475 1531.6 Q716.475 1540.33 713.397 1544.94 Q710.341 1549.52 704.531 1549.52 Q698.721 1549.52 695.642 1544.94 Q692.587 1540.33 692.587 1531.6 Q692.587 1522.85 695.642 1518.27 Q698.721 1513.66 704.531 1513.66 Z" fill="#000000" fill-rule="evenodd" fill-opacity="1" /><path clip-path="url(#clip020)" d="M949.729 1517.37 Q946.118 1517.37 944.289 1520.93 Q942.484 1524.47 942.484 1531.6 Q942.484 1538.71 944.289 1542.27 Q946.118 1545.82 949.729 1545.82 Q953.363 1545.82 955.169 1542.27 Q956.997 1538.71 956.997 1531.6 Q956.997 1524.47 955.169 1520.93 Q953.363 1517.37 949.729 1517.37 M949.729 1513.66 Q955.539 1513.66 958.595 1518.27 Q961.673 1522.85 961.673 1531.6 Q961.673 1540.33 958.595 1544.94 Q955.539 1549.52 949.729 1549.52 Q943.919 1549.52 940.84 1544.94 Q937.784 1540.33 937.784 1531.6 Q937.784 1522.85 940.84 1518.27 Q943.919 1513.66 949.729 1513.66 Z" fill="#000000" fill-rule="evenodd" fill-opacity="1" /><path clip-path="url(#clip020)" d="M969.891 1542.97 L974.775 1542.97 L974.775 1548.85 L969.891 1548.85 L969.891 1542.97 Z" fill="#000000" fill-rule="evenodd" fill-opacity="1" /><path clip-path="url(#clip020)" d="M985.006 1514.29 L1003.36 1514.29 L1003.36 1518.22 L989.289 1518.22 L989.289 1526.7 Q990.307 1526.35 991.326 1526.19 Q992.344 1526 993.363 1526 Q999.15 1526 1002.53 1529.17 Q1005.91 1532.34 1005.91 1537.76 Q1005.91 1543.34 1002.44 1546.44 Q998.965 1549.52 992.645 1549.52 Q990.469 1549.52 988.201 1549.15 Q985.955 1548.78 983.548 1548.04 L983.548 1543.34 Q985.631 1544.47 987.854 1545.03 Q990.076 1545.58 992.553 1545.58 Q996.557 1545.58 998.895 1543.48 Q1001.23 1541.37 1001.23 1537.76 Q1001.23 1534.15 998.895 1532.04 Q996.557 1529.94 992.553 1529.94 Q990.678 1529.94 988.803 1530.35 Q986.951 1530.77 985.006 1531.65 L985.006 1514.29 Z" fill="#000000" fill-rule="evenodd" fill-opacity="1" /><path clip-path="url(#clip020)" d="M1015.17 1514.29 L1033.52 1514.29 L1033.52 1518.22 L1019.45 1518.22 L1019.45 1526.7 Q1020.47 1526.35 1021.49 1526.19 Q1022.51 1526 1023.52 1526 Q1029.31 1526 1032.69 1529.17 Q1036.07 1532.34 1036.07 1537.76 Q1036.07 1543.34 1032.6 1546.44 Q1029.13 1549.52 1022.81 1549.52 Q1020.63 1549.52 1018.36 1549.15 Q1016.12 1548.78 1013.71 1548.04 L1013.71 1543.34 Q1015.79 1544.47 1018.02 1545.03 Q1020.24 1545.58 1022.71 1545.58 Q1026.72 1545.58 1029.06 1543.48 Q1031.4 1541.37 1031.4 1537.76 Q1031.4 1534.15 1029.06 1532.04 Q1026.72 1529.94 1022.71 1529.94 Q1020.84 1529.94 1018.96 1530.35 Q1017.11 1530.77 1015.17 1531.65 L1015.17 1514.29 Z" fill="#000000" fill-rule="evenodd" fill-opacity="1" /><path clip-path="url(#clip020)" d="M1269.32 1517.37 Q1265.71 1517.37 1263.88 1520.93 Q1262.08 1524.47 1262.08 1531.6 Q1262.08 1538.71 1263.88 1542.27 Q1265.71 1545.82 1269.32 1545.82 Q1272.96 1545.82 1274.76 1542.27 Q1276.59 1538.71 1276.59 1531.6 Q1276.59 1524.47 1274.76 1520.93 Q1272.96 1517.37 1269.32 1517.37 M1269.32 1513.66 Q1275.13 1513.66 1278.19 1518.27 Q1281.27 1522.85 1281.27 1531.6 Q1281.27 1540.33 1278.19 1544.94 Q1275.13 1549.52 1269.32 1549.52 Q1263.51 1549.52 1260.44 1544.94 Q1257.38 1540.33 1257.38 1531.6 Q1257.38 1522.85 1260.44 1518.27 Q1263.51 1513.66 1269.32 1513.66 Z" fill="#000000" fill-rule="evenodd" fill-opacity="1" /><path clip-path="url(#clip020)" d="M1289.49 1542.97 L1294.37 1542.97 L1294.37 1548.85 L1289.49 1548.85 L1289.49 1542.97 Z" fill="#000000" fill-rule="evenodd" fill-opacity="1" /><path clip-path="url(#clip020)" d="M1315.13 1529.7 Q1311.99 1529.7 1310.13 1531.86 Q1308.31 1534.01 1308.31 1537.76 Q1308.31 1541.49 1310.13 1543.66 Q1311.99 1545.82 1315.13 1545.82 Q1318.28 1545.82 1320.11 1543.66 Q1321.96 1541.49 1321.96 1537.76 Q1321.96 1534.01 1320.11 1531.86 Q1318.28 1529.7 1315.13 1529.7 M1324.42 1515.05 L1324.42 1519.31 Q1322.66 1518.48 1320.85 1518.04 Q1319.07 1517.6 1317.31 1517.6 Q1312.68 1517.6 1310.23 1520.72 Q1307.8 1523.85 1307.45 1530.17 Q1308.81 1528.15 1310.88 1527.09 Q1312.94 1526 1315.41 1526 Q1320.62 1526 1323.63 1529.17 Q1326.66 1532.32 1326.66 1537.76 Q1326.66 1543.08 1323.51 1546.3 Q1320.37 1549.52 1315.13 1549.52 Q1309.14 1549.52 1305.97 1544.94 Q1302.8 1540.33 1302.8 1531.6 Q1302.8 1523.41 1306.69 1518.55 Q1310.57 1513.66 1317.13 1513.66 Q1318.88 1513.66 1320.67 1514.01 Q1322.47 1514.36 1324.42 1515.05 Z" fill="#000000" fill-rule="evenodd" fill-opacity="1" /><path clip-path="url(#clip020)" d="M1344.72 1517.37 Q1341.11 1517.37 1339.28 1520.93 Q1337.47 1524.47 1337.47 1531.6 Q1337.47 1538.71 1339.28 1542.27 Q1341.11 1545.82 1344.72 1545.82 Q1348.35 1545.82 1350.16 1542.27 Q1351.99 1538.71 1351.99 1531.6 Q1351.99 1524.47 1350.16 1520.93 Q1348.35 1517.37 1344.72 1517.37 M1344.72 1513.66 Q1350.53 1513.66 1353.58 1518.27 Q1356.66 1522.85 1356.66 1531.6 Q1356.66 1540.33 1353.58 1544.94 Q1350.53 1549.52 1344.72 1549.52 Q1338.91 1549.52 1335.83 1544.94 Q1332.77 1540.33 1332.77 1531.6 Q1332.77 1522.85 1335.83 1518.27 Q1338.91 1513.66 1344.72 1513.66 Z" fill="#000000" fill-rule="evenodd" fill-opacity="1" /><path clip-path="url(#clip020)" d="M1589.92 1517.37 Q1586.3 1517.37 1584.48 1520.93 Q1582.67 1524.47 1582.67 1531.6 Q1582.67 1538.71 1584.48 1542.27 Q1586.3 1545.82 1589.92 1545.82 Q1593.55 1545.82 1595.36 1542.27 Q1597.18 1538.71 1597.18 1531.6 Q1597.18 1524.47 1595.36 1520.93 Q1593.55 1517.37 1589.92 1517.37 M1589.92 1513.66 Q1595.73 1513.66 1598.78 1518.27 Q1601.86 1522.85 1601.86 1531.6 Q1601.86 1540.33 1598.78 1544.94 Q1595.73 1549.52 1589.92 1549.52 Q1584.11 1549.52 1581.03 1544.94 Q1577.97 1540.33 1577.97 1531.6 Q1577.97 1522.85 1581.03 1518.27 Q1584.11 1513.66 1589.92 1513.66 Z" fill="#000000" fill-rule="evenodd" fill-opacity="1" /><path clip-path="url(#clip020)" d="M1610.08 1542.97 L1614.96 1542.97 L1614.96 1548.85 L1610.08 1548.85 L1610.08 1542.97 Z" fill="#000000" fill-rule="evenodd" fill-opacity="1" /><path clip-path="url(#clip020)" d="M1635.73 1529.7 Q1632.58 1529.7 1630.73 1531.86 Q1628.9 1534.01 1628.9 1537.76 Q1628.9 1541.49 1630.73 1543.66 Q1632.58 1545.82 1635.73 1545.82 Q1638.87 1545.82 1640.7 1543.66 Q1642.55 1541.49 1642.55 1537.76 Q1642.55 1534.01 1640.7 1531.86 Q1638.87 1529.7 1635.73 1529.7 M1645.01 1515.05 L1645.01 1519.31 Q1643.25 1518.48 1641.44 1518.04 Q1639.66 1517.6 1637.9 1517.6 Q1633.27 1517.6 1630.82 1520.72 Q1628.39 1523.85 1628.04 1530.17 Q1629.41 1528.15 1631.47 1527.09 Q1633.53 1526 1636 1526 Q1641.21 1526 1644.22 1529.17 Q1647.25 1532.32 1647.25 1537.76 Q1647.25 1543.08 1644.1 1546.3 Q1640.96 1549.52 1635.73 1549.52 Q1629.73 1549.52 1626.56 1544.94 Q1623.39 1540.33 1623.39 1531.6 Q1623.39 1523.41 1627.28 1518.55 Q1631.17 1513.66 1637.72 1513.66 Q1639.48 1513.66 1641.26 1514.01 Q1643.06 1514.36 1645.01 1515.05 Z" fill="#000000" fill-rule="evenodd" fill-opacity="1" /><path clip-path="url(#clip020)" d="M1655.35 1514.29 L1673.71 1514.29 L1673.71 1518.22 L1659.64 1518.22 L1659.64 1526.7 Q1660.66 1526.35 1661.67 1526.19 Q1662.69 1526 1663.71 1526 Q1669.5 1526 1672.88 1529.17 Q1676.26 1532.34 1676.26 1537.76 Q1676.26 1543.34 1672.79 1546.44 Q1669.31 1549.52 1662.99 1549.52 Q1660.82 1549.52 1658.55 1549.15 Q1656.3 1548.78 1653.9 1548.04 L1653.9 1543.34 Q1655.98 1544.47 1658.2 1545.03 Q1660.42 1545.58 1662.9 1545.58 Q1666.91 1545.58 1669.24 1543.48 Q1671.58 1541.37 1671.58 1537.76 Q1671.58 1534.15 1669.24 1532.04 Q1666.91 1529.94 1662.9 1529.94 Q1661.03 1529.94 1659.15 1530.35 Q1657.3 1530.77 1655.35 1531.65 L1655.35 1514.29 Z" fill="#000000" fill-rule="evenodd" fill-opacity="1" /><path clip-path="url(#clip020)" d="M1909.51 1517.37 Q1905.9 1517.37 1904.07 1520.93 Q1902.27 1524.47 1902.27 1531.6 Q1902.27 1538.71 1904.07 1542.27 Q1905.9 1545.82 1909.51 1545.82 Q1913.15 1545.82 1914.95 1542.27 Q1916.78 1538.71 1916.78 1531.6 Q1916.78 1524.47 1914.95 1520.93 Q1913.15 1517.37 1909.51 1517.37 M1909.51 1513.66 Q1915.32 1513.66 1918.38 1518.27 Q1921.46 1522.85 1921.46 1531.6 Q1921.46 1540.33 1918.38 1544.94 Q1915.32 1549.52 1909.51 1549.52 Q1903.7 1549.52 1900.62 1544.94 Q1897.57 1540.33 1897.57 1531.6 Q1897.57 1522.85 1900.62 1518.27 Q1903.7 1513.66 1909.51 1513.66 Z" fill="#000000" fill-rule="evenodd" fill-opacity="1" /><path clip-path="url(#clip020)" d="M1929.67 1542.97 L1934.56 1542.97 L1934.56 1548.85 L1929.67 1548.85 L1929.67 1542.97 Z" fill="#000000" fill-rule="evenodd" fill-opacity="1" /><path clip-path="url(#clip020)" d="M1943.56 1514.29 L1965.78 1514.29 L1965.78 1516.28 L1953.24 1548.85 L1948.35 1548.85 L1960.16 1518.22 L1943.56 1518.22 L1943.56 1514.29 Z" fill="#000000" fill-rule="evenodd" fill-opacity="1" /><path clip-path="url(#clip020)" d="M1984.9 1517.37 Q1981.29 1517.37 1979.46 1520.93 Q1977.66 1524.47 1977.66 1531.6 Q1977.66 1538.71 1979.46 1542.27 Q1981.29 1545.82 1984.9 1545.82 Q1988.54 1545.82 1990.34 1542.27 Q1992.17 1538.71 1992.17 1531.6 Q1992.17 1524.47 1990.34 1520.93 Q1988.54 1517.37 1984.9 1517.37 M1984.9 1513.66 Q1990.71 1513.66 1993.77 1518.27 Q1996.85 1522.85 1996.85 1531.6 Q1996.85 1540.33 1993.77 1544.94 Q1990.71 1549.52 1984.9 1549.52 Q1979.09 1549.52 1976.02 1544.94 Q1972.96 1540.33 1972.96 1531.6 Q1972.96 1522.85 1976.02 1518.27 Q1979.09 1513.66 1984.9 1513.66 Z" fill="#000000" fill-rule="evenodd" fill-opacity="1" /><path clip-path="url(#clip020)" d="M2230.1 1517.37 Q2226.49 1517.37 2224.66 1520.93 Q2222.86 1524.47 2222.86 1531.6 Q2222.86 1538.71 2224.66 1542.27 Q2226.49 1545.82 2230.1 1545.82 Q2233.74 1545.82 2235.54 1542.27 Q2237.37 1538.71 2237.37 1531.6 Q2237.37 1524.47 2235.54 1520.93 Q2233.74 1517.37 2230.1 1517.37 M2230.1 1513.66 Q2235.91 1513.66 2238.97 1518.27 Q2242.05 1522.85 2242.05 1531.6 Q2242.05 1540.33 2238.97 1544.94 Q2235.91 1549.52 2230.1 1549.52 Q2224.29 1549.52 2221.21 1544.94 Q2218.16 1540.33 2218.16 1531.6 Q2218.16 1522.85 2221.21 1518.27 Q2224.29 1513.66 2230.1 1513.66 Z" fill="#000000" fill-rule="evenodd" fill-opacity="1" /><path clip-path="url(#clip020)" d="M2250.26 1542.97 L2255.15 1542.97 L2255.15 1548.85 L2250.26 1548.85 L2250.26 1542.97 Z" fill="#000000" fill-rule="evenodd" fill-opacity="1" /><path clip-path="url(#clip020)" d="M2264.15 1514.29 L2286.37 1514.29 L2286.37 1516.28 L2273.83 1548.85 L2268.94 1548.85 L2280.75 1518.22 L2264.15 1518.22 L2264.15 1514.29 Z" fill="#000000" fill-rule="evenodd" fill-opacity="1" /><path clip-path="url(#clip020)" d="M2295.54 1514.29 L2313.9 1514.29 L2313.9 1518.22 L2299.82 1518.22 L2299.82 1526.7 Q2300.84 1526.35 2301.86 1526.19 Q2302.88 1526 2303.9 1526 Q2309.68 1526 2313.06 1529.17 Q2316.44 1532.34 2316.44 1537.76 Q2316.44 1543.34 2312.97 1546.44 Q2309.5 1549.52 2303.18 1549.52 Q2301 1549.52 2298.74 1549.15 Q2296.49 1548.78 2294.08 1548.04 L2294.08 1543.34 Q2296.17 1544.47 2298.39 1545.03 Q2300.61 1545.58 2303.09 1545.58 Q2307.09 1545.58 2309.43 1543.48 Q2311.77 1541.37 2311.77 1537.76 Q2311.77 1534.15 2309.43 1532.04 Q2307.09 1529.94 2303.09 1529.94 Q2301.21 1529.94 2299.34 1530.35 Q2297.49 1530.77 2295.54 1531.65 L2295.54 1514.29 Z" fill="#000000" fill-rule="evenodd" fill-opacity="1" /><polyline clip-path="url(#clip022)" style="stroke:#000000; stroke-linecap:round; stroke-linejoin:round; stroke-width:2; stroke-opacity:0.1; fill:none" points="
  194.422,1354.26 2352.76,1354.26 
  "/>
<polyline clip-path="url(#clip022)" style="stroke:#000000; stroke-linecap:round; stroke-linejoin:round; stroke-width:2; stroke-opacity:0.1; fill:none" points="
  194.422,1018.48 2352.76,1018.48 
  "/>
<polyline clip-path="url(#clip022)" style="stroke:#000000; stroke-linecap:round; stroke-linejoin:round; stroke-width:2; stroke-opacity:0.1; fill:none" points="
  194.422,682.687 2352.76,682.687 
  "/>
<polyline clip-path="url(#clip022)" style="stroke:#000000; stroke-linecap:round; stroke-linejoin:round; stroke-width:2; stroke-opacity:0.1; fill:none" points="
  194.422,346.898 2352.76,346.898 
  "/>
<polyline clip-path="url(#clip020)" style="stroke:#000000; stroke-linecap:round; stroke-linejoin:round; stroke-width:4; stroke-opacity:1; fill:none" points="
  194.422,1486.45 194.422,47.2441 
  "/>
<polyline clip-path="url(#clip020)" style="stroke:#000000; stroke-linecap:round; stroke-linejoin:round; stroke-width:4; stroke-opacity:1; fill:none" points="
  194.422,1354.26 213.32,1354.26 
  "/>
<polyline clip-path="url(#clip020)" style="stroke:#000000; stroke-linecap:round; stroke-linejoin:round; stroke-width:4; stroke-opacity:1; fill:none" points="
  194.422,1018.48 213.32,1018.48 
  "/>
<polyline clip-path="url(#clip020)" style="stroke:#000000; stroke-linecap:round; stroke-linejoin:round; stroke-width:4; stroke-opacity:1; fill:none" points="
  194.422,682.687 213.32,682.687 
  "/>
<polyline clip-path="url(#clip020)" style="stroke:#000000; stroke-linecap:round; stroke-linejoin:round; stroke-width:4; stroke-opacity:1; fill:none" points="
  194.422,346.898 213.32,346.898 
  "/>
<path clip-path="url(#clip020)" d="M50.9921 1354.72 L80.6679 1354.72 L80.6679 1358.65 L50.9921 1358.65 L50.9921 1354.72 Z" fill="#000000" fill-rule="evenodd" fill-opacity="1" /><path clip-path="url(#clip020)" d="M100.76 1340.06 Q97.1493 1340.06 95.3206 1343.63 Q93.515 1347.17 93.515 1354.3 Q93.515 1361.41 95.3206 1364.97 Q97.1493 1368.51 100.76 1368.51 Q104.395 1368.51 106.2 1364.97 Q108.029 1361.41 108.029 1354.3 Q108.029 1347.17 106.2 1343.63 Q104.395 1340.06 100.76 1340.06 M100.76 1336.36 Q106.571 1336.36 109.626 1340.97 Q112.705 1345.55 112.705 1354.3 Q112.705 1363.03 109.626 1367.63 Q106.571 1372.22 100.76 1372.22 Q94.9502 1372.22 91.8715 1367.63 Q88.816 1363.03 88.816 1354.3 Q88.816 1345.55 91.8715 1340.97 Q94.9502 1336.36 100.76 1336.36 Z" fill="#000000" fill-rule="evenodd" fill-opacity="1" /><path clip-path="url(#clip020)" d="M120.922 1365.67 L125.807 1365.67 L125.807 1371.54 L120.922 1371.54 L120.922 1365.67 Z" fill="#000000" fill-rule="evenodd" fill-opacity="1" /><path clip-path="url(#clip020)" d="M148.839 1341.06 L137.033 1359.51 L148.839 1359.51 L148.839 1341.06 M147.612 1336.98 L153.492 1336.98 L153.492 1359.51 L158.422 1359.51 L158.422 1363.4 L153.492 1363.4 L153.492 1371.54 L148.839 1371.54 L148.839 1363.4 L133.237 1363.4 L133.237 1358.88 L147.612 1336.98 Z" fill="#000000" fill-rule="evenodd" fill-opacity="1" /><path clip-path="url(#clip020)" d="M53.0754 1018.93 L82.7512 1018.93 L82.7512 1022.86 L53.0754 1022.86 L53.0754 1018.93 Z" fill="#000000" fill-rule="evenodd" fill-opacity="1" /><path clip-path="url(#clip020)" d="M102.844 1004.27 Q99.2326 1004.27 97.4039 1007.84 Q95.5984 1011.38 95.5984 1018.51 Q95.5984 1025.62 97.4039 1029.18 Q99.2326 1032.72 102.844 1032.72 Q106.478 1032.72 108.283 1029.18 Q110.112 1025.62 110.112 1018.51 Q110.112 1011.38 108.283 1007.84 Q106.478 1004.27 102.844 1004.27 M102.844 1000.57 Q108.654 1000.57 111.709 1005.18 Q114.788 1009.76 114.788 1018.51 Q114.788 1027.24 111.709 1031.84 Q108.654 1036.43 102.844 1036.43 Q97.0335 1036.43 93.9549 1031.84 Q90.8993 1027.24 90.8993 1018.51 Q90.8993 1009.76 93.9549 1005.18 Q97.0335 1000.57 102.844 1000.57 Z" fill="#000000" fill-rule="evenodd" fill-opacity="1" /><path clip-path="url(#clip020)" d="M123.006 1029.88 L127.89 1029.88 L127.89 1035.76 L123.006 1035.76 L123.006 1029.88 Z" fill="#000000" fill-rule="evenodd" fill-opacity="1" /><path clip-path="url(#clip020)" d="M142.103 1031.82 L158.422 1031.82 L158.422 1035.76 L136.478 1035.76 L136.478 1031.82 Q139.14 1029.07 143.723 1024.44 Q148.33 1019.78 149.51 1018.44 Q151.755 1015.92 152.635 1014.18 Q153.538 1012.42 153.538 1010.73 Q153.538 1007.98 151.593 1006.24 Q149.672 1004.51 146.57 1004.51 Q144.371 1004.51 141.918 1005.27 Q139.487 1006.03 136.709 1007.58 L136.709 1002.86 Q139.533 1001.73 141.987 1001.15 Q144.441 1000.57 146.478 1000.57 Q151.848 1000.57 155.042 1003.26 Q158.237 1005.94 158.237 1010.43 Q158.237 1012.56 157.427 1014.48 Q156.64 1016.38 154.533 1018.97 Q153.955 1019.65 150.853 1022.86 Q147.751 1026.06 142.103 1031.82 Z" fill="#000000" fill-rule="evenodd" fill-opacity="1" /><path clip-path="url(#clip020)" d="M101.246 668.486 Q97.6354 668.486 95.8067 672.051 Q94.0012 675.592 94.0012 682.722 Q94.0012 689.828 95.8067 693.393 Q97.6354 696.935 101.246 696.935 Q104.881 696.935 106.686 693.393 Q108.515 689.828 108.515 682.722 Q108.515 675.592 106.686 672.051 Q104.881 668.486 101.246 668.486 M101.246 664.782 Q107.057 664.782 110.112 669.389 Q113.191 673.972 113.191 682.722 Q113.191 691.449 110.112 696.055 Q107.057 700.638 101.246 700.638 Q95.4363 700.638 92.3576 696.055 Q89.3021 691.449 89.3021 682.722 Q89.3021 673.972 92.3576 669.389 Q95.4363 664.782 101.246 664.782 Z" fill="#000000" fill-rule="evenodd" fill-opacity="1" /><path clip-path="url(#clip020)" d="M121.408 694.088 L126.293 694.088 L126.293 699.967 L121.408 699.967 L121.408 694.088 Z" fill="#000000" fill-rule="evenodd" fill-opacity="1" /><path clip-path="url(#clip020)" d="M146.478 668.486 Q142.867 668.486 141.038 672.051 Q139.232 675.592 139.232 682.722 Q139.232 689.828 141.038 693.393 Q142.867 696.935 146.478 696.935 Q150.112 696.935 151.918 693.393 Q153.746 689.828 153.746 682.722 Q153.746 675.592 151.918 672.051 Q150.112 668.486 146.478 668.486 M146.478 664.782 Q152.288 664.782 155.343 669.389 Q158.422 673.972 158.422 682.722 Q158.422 691.449 155.343 696.055 Q152.288 700.638 146.478 700.638 Q140.668 700.638 137.589 696.055 Q134.533 691.449 134.533 682.722 Q134.533 673.972 137.589 669.389 Q140.668 664.782 146.478 664.782 Z" fill="#000000" fill-rule="evenodd" fill-opacity="1" /><path clip-path="url(#clip020)" d="M102.844 332.697 Q99.2326 332.697 97.4039 336.262 Q95.5984 339.803 95.5984 346.933 Q95.5984 354.039 97.4039 357.604 Q99.2326 361.146 102.844 361.146 Q106.478 361.146 108.283 357.604 Q110.112 354.039 110.112 346.933 Q110.112 339.803 108.283 336.262 Q106.478 332.697 102.844 332.697 M102.844 328.993 Q108.654 328.993 111.709 333.6 Q114.788 338.183 114.788 346.933 Q114.788 355.66 111.709 360.266 Q108.654 364.85 102.844 364.85 Q97.0335 364.85 93.9549 360.266 Q90.8993 355.66 90.8993 346.933 Q90.8993 338.183 93.9549 333.6 Q97.0335 328.993 102.844 328.993 Z" fill="#000000" fill-rule="evenodd" fill-opacity="1" /><path clip-path="url(#clip020)" d="M123.006 358.299 L127.89 358.299 L127.89 364.178 L123.006 364.178 L123.006 358.299 Z" fill="#000000" fill-rule="evenodd" fill-opacity="1" /><path clip-path="url(#clip020)" d="M142.103 360.243 L158.422 360.243 L158.422 364.178 L136.478 364.178 L136.478 360.243 Q139.14 357.488 143.723 352.859 Q148.33 348.206 149.51 346.863 Q151.755 344.34 152.635 342.604 Q153.538 340.845 153.538 339.155 Q153.538 336.401 151.593 334.664 Q149.672 332.928 146.57 332.928 Q144.371 332.928 141.918 333.692 Q139.487 334.456 136.709 336.007 L136.709 331.285 Q139.533 330.151 141.987 329.572 Q144.441 328.993 146.478 328.993 Q151.848 328.993 155.042 331.678 Q158.237 334.364 158.237 338.854 Q158.237 340.984 157.427 342.905 Q156.64 344.803 154.533 347.396 Q153.955 348.067 150.853 351.285 Q147.751 354.479 142.103 360.243 Z" fill="#000000" fill-rule="evenodd" fill-opacity="1" /><circle clip-path="url(#clip022)" cx="2291.67" cy="87.9763" r="14.4" fill="#009af9" fill-rule="evenodd" fill-opacity="1" stroke="#000000" stroke-opacity="1" stroke-width="3.2"/>
<circle clip-path="url(#clip022)" cx="255.507" cy="1445.72" r="14.4" fill="#009af9" fill-rule="evenodd" fill-opacity="1" stroke="#000000" stroke-opacity="1" stroke-width="3.2"/>
<path clip-path="url(#clip020)" d="
M1988.57 198.898 L2280.81 198.898 L2280.81 95.2176 L1988.57 95.2176  Z
  " fill="#ffffff" fill-rule="evenodd" fill-opacity="1"/>
<polyline clip-path="url(#clip020)" style="stroke:#000000; stroke-linecap:round; stroke-linejoin:round; stroke-width:4; stroke-opacity:1; fill:none" points="
  1988.57,198.898 2280.81,198.898 2280.81,95.2176 1988.57,95.2176 1988.57,198.898 
  "/>
<circle clip-path="url(#clip020)" cx="2084.49" cy="147.058" r="23.04" fill="#009af9" fill-rule="evenodd" fill-opacity="1" stroke="#000000" stroke-opacity="1" stroke-width="5.12"/>
<path clip-path="url(#clip020)" d="M2194.26 166.745 Q2192.46 171.375 2190.74 172.787 Q2189.03 174.199 2186.16 174.199 L2182.76 174.199 L2182.76 170.634 L2185.26 170.634 Q2187.02 170.634 2187.99 169.8 Q2188.96 168.967 2190.14 165.865 L2190.9 163.921 L2180.42 138.412 L2184.93 138.412 L2193.03 158.689 L2201.14 138.412 L2205.65 138.412 L2194.26 166.745 Z" fill="#000000" fill-rule="evenodd" fill-opacity="1" /><path clip-path="url(#clip020)" d="M2212.94 160.402 L2220.58 160.402 L2220.58 134.037 L2212.27 135.703 L2212.27 131.444 L2220.53 129.778 L2225.21 129.778 L2225.21 160.402 L2232.85 160.402 L2232.85 164.338 L2212.94 164.338 L2212.94 160.402 Z" fill="#000000" fill-rule="evenodd" fill-opacity="1" /></svg>
