<?xml version="1.0" encoding="utf-8"?>
<svg xmlns="http://www.w3.org/2000/svg" xmlns:xlink="http://www.w3.org/1999/xlink" width="600" height="400" viewBox="0 0 2400 1600">
<defs>
  <clipPath id="clip860">
    <rect x="0" y="0" width="2400" height="1600"/>
  </clipPath>
</defs>
<path clip-path="url(#clip860)" d="
M0 1600 L2400 1600 L2400 0 L0 0  Z
  " fill="#ffffff" fill-rule="evenodd" fill-opacity="1"/>
<defs>
  <clipPath id="clip861">
    <rect x="480" y="0" width="1681" height="1600"/>
  </clipPath>
</defs>
<path clip-path="url(#clip860)" d="
M156.598 1486.45 L2352.76 1486.45 L2352.76 47.2441 L156.598 47.2441  Z
  " fill="#ffffff" fill-rule="evenodd" fill-opacity="1"/>
<defs>
  <clipPath id="clip862">
    <rect x="156" y="47" width="2197" height="1440"/>
  </clipPath>
</defs>
<polyline clip-path="url(#clip862)" style="stroke:#000000; stroke-linecap:round; stroke-linejoin:round; stroke-width:2; stroke-opacity:0.1; fill:none" points="
  170.571,1486.45 170.571,47.2441 
  "/>
<polyline clip-path="url(#clip862)" style="stroke:#000000; stroke-linecap:round; stroke-linejoin:round; stroke-width:2; stroke-opacity:0.1; fill:none" points="
  652.396,1486.45 652.396,47.2441 
  "/>
<polyline clip-path="url(#clip862)" style="stroke:#000000; stroke-linecap:round; stroke-linejoin:round; stroke-width:2; stroke-opacity:0.1; fill:none" points="
  1134.22,1486.45 1134.22,47.2441 
  "/>
<polyline clip-path="url(#clip862)" style="stroke:#000000; stroke-linecap:round; stroke-linejoin:round; stroke-width:2; stroke-opacity:0.1; fill:none" points="
  1616.05,1486.45 1616.05,47.2441 
  "/>
<polyline clip-path="url(#clip862)" style="stroke:#000000; stroke-linecap:round; stroke-linejoin:round; stroke-width:2; stroke-opacity:0.1; fill:none" points="
  2097.87,1486.45 2097.87,47.2441 
  "/>
<polyline clip-path="url(#clip860)" style="stroke:#000000; stroke-linecap:round; stroke-linejoin:round; stroke-width:4; stroke-opacity:1; fill:none" points="
  156.598,1486.45 2352.76,1486.45 
  "/>
<polyline clip-path="url(#clip860)" style="stroke:#000000; stroke-linecap:round; stroke-linejoin:round; stroke-width:4; stroke-opacity:1; fill:none" points="
  170.571,1486.45 170.571,1467.55 
  "/>
<polyline clip-path="url(#clip860)" style="stroke:#000000; stroke-linecap:round; stroke-linejoin:round; stroke-width:4; stroke-opacity:1; fill:none" points="
  652.396,1486.45 652.396,1467.55 
  "/>
<polyline clip-path="url(#clip860)" style="stroke:#000000; stroke-linecap:round; stroke-linejoin:round; stroke-width:4; stroke-opacity:1; fill:none" points="
  1134.22,1486.45 1134.22,1467.55 
  "/>
<polyline clip-path="url(#clip860)" style="stroke:#000000; stroke-linecap:round; stroke-linejoin:round; stroke-width:4; stroke-opacity:1; fill:none" points="
  1616.05,1486.45 1616.05,1467.55 
  "/>
<polyline clip-path="url(#clip860)" style="stroke:#000000; stroke-linecap:round; stroke-linejoin:round; stroke-width:4; stroke-opacity:1; fill:none" points="
  2097.87,1486.45 2097.87,1467.55 
  "/>
<path clip-path="url(#clip860)" d="M170.571 1517.37 Q166.96 1517.37 165.131 1520.93 Q163.326 1524.47 163.326 1531.6 Q163.326 1538.71 165.131 1542.27 Q166.96 1545.82 170.571 1545.82 Q174.205 1545.82 176.011 1542.27 Q177.84 1538.71 177.84 1531.6 Q177.84 1524.47 176.011 1520.93 Q174.205 1517.37 170.571 1517.37 M170.571 1513.66 Q176.381 1513.66 179.437 1518.27 Q182.516 1522.85 182.516 1531.6 Q182.516 1540.33 179.437 1544.94 Q176.381 1549.52 170.571 1549.52 Q164.761 1549.52 161.682 1544.94 Q158.627 1540.33 158.627 1531.6 Q158.627 1522.85 161.682 1518.27 Q164.761 1513.66 170.571 1513.66 Z" fill="#000000" fill-rule="evenodd" fill-opacity="1" /><path clip-path="url(#clip860)" d="M627.084 1544.91 L634.722 1544.91 L634.722 1518.55 L626.412 1520.21 L626.412 1515.95 L634.676 1514.29 L639.352 1514.29 L639.352 1544.91 L646.991 1544.91 L646.991 1548.85 L627.084 1548.85 L627.084 1544.91 Z" fill="#000000" fill-rule="evenodd" fill-opacity="1" /><path clip-path="url(#clip860)" d="M666.435 1517.37 Q662.824 1517.37 660.995 1520.93 Q659.19 1524.47 659.19 1531.6 Q659.19 1538.71 660.995 1542.27 Q662.824 1545.82 666.435 1545.82 Q670.07 1545.82 671.875 1542.27 Q673.704 1538.71 673.704 1531.6 Q673.704 1524.47 671.875 1520.93 Q670.07 1517.37 666.435 1517.37 M666.435 1513.66 Q672.245 1513.66 675.301 1518.27 Q678.38 1522.85 678.38 1531.6 Q678.38 1540.33 675.301 1544.94 Q672.245 1549.52 666.435 1549.52 Q660.625 1549.52 657.546 1544.94 Q654.491 1540.33 654.491 1531.6 Q654.491 1522.85 657.546 1518.27 Q660.625 1513.66 666.435 1513.66 Z" fill="#000000" fill-rule="evenodd" fill-opacity="1" /><path clip-path="url(#clip860)" d="M1112.99 1544.91 L1129.31 1544.91 L1129.31 1548.85 L1107.37 1548.85 L1107.37 1544.91 Q1110.03 1542.16 1114.61 1537.53 Q1119.22 1532.88 1120.4 1531.53 Q1122.65 1529.01 1123.53 1527.27 Q1124.43 1525.51 1124.43 1523.82 Q1124.43 1521.07 1122.48 1519.33 Q1120.56 1517.6 1117.46 1517.6 Q1115.26 1517.6 1112.81 1518.36 Q1110.38 1519.13 1107.6 1520.68 L1107.6 1515.95 Q1110.42 1514.82 1112.88 1514.24 Q1115.33 1513.66 1117.37 1513.66 Q1122.74 1513.66 1125.93 1516.35 Q1129.13 1519.03 1129.13 1523.52 Q1129.13 1525.65 1128.32 1527.57 Q1127.53 1529.47 1125.42 1532.07 Q1124.85 1532.74 1121.74 1535.95 Q1118.64 1539.15 1112.99 1544.91 Z" fill="#000000" fill-rule="evenodd" fill-opacity="1" /><path clip-path="url(#clip860)" d="M1149.13 1517.37 Q1145.52 1517.37 1143.69 1520.93 Q1141.88 1524.47 1141.88 1531.6 Q1141.88 1538.71 1143.69 1542.27 Q1145.52 1545.82 1149.13 1545.82 Q1152.76 1545.82 1154.57 1542.27 Q1156.4 1538.71 1156.4 1531.6 Q1156.4 1524.47 1154.57 1520.93 Q1152.76 1517.37 1149.13 1517.37 M1149.13 1513.66 Q1154.94 1513.66 1157.99 1518.27 Q1161.07 1522.85 1161.07 1531.6 Q1161.07 1540.33 1157.99 1544.94 Q1154.94 1549.52 1149.13 1549.52 Q1143.32 1549.52 1140.24 1544.94 Q1137.18 1540.33 1137.18 1531.6 Q1137.18 1522.85 1140.24 1518.27 Q1143.32 1513.66 1149.13 1513.66 Z" fill="#000000" fill-rule="evenodd" fill-opacity="1" /><path clip-path="url(#clip860)" d="M1604.89 1530.21 Q1608.24 1530.93 1610.12 1533.2 Q1612.02 1535.47 1612.02 1538.8 Q1612.02 1543.92 1608.5 1546.72 Q1604.98 1549.52 1598.5 1549.52 Q1596.32 1549.52 1594.01 1549.08 Q1591.72 1548.66 1589.26 1547.81 L1589.26 1543.29 Q1591.21 1544.43 1593.52 1545.01 Q1595.84 1545.58 1598.36 1545.58 Q1602.76 1545.58 1605.05 1543.85 Q1607.37 1542.11 1607.37 1538.8 Q1607.37 1535.75 1605.21 1534.03 Q1603.08 1532.3 1599.26 1532.3 L1595.24 1532.3 L1595.24 1528.45 L1599.45 1528.45 Q1602.9 1528.45 1604.73 1527.09 Q1606.56 1525.7 1606.56 1523.11 Q1606.56 1520.45 1604.66 1519.03 Q1602.78 1517.6 1599.26 1517.6 Q1597.34 1517.6 1595.14 1518.01 Q1592.94 1518.43 1590.31 1519.31 L1590.31 1515.14 Q1592.97 1514.4 1595.28 1514.03 Q1597.62 1513.66 1599.68 1513.66 Q1605 1513.66 1608.11 1516.09 Q1611.21 1518.5 1611.21 1522.62 Q1611.21 1525.49 1609.56 1527.48 Q1607.92 1529.45 1604.89 1530.21 Z" fill="#000000" fill-rule="evenodd" fill-opacity="1" /><path clip-path="url(#clip860)" d="M1630.88 1517.37 Q1627.27 1517.37 1625.44 1520.93 Q1623.64 1524.47 1623.64 1531.6 Q1623.64 1538.71 1625.44 1542.27 Q1627.27 1545.82 1630.88 1545.82 Q1634.52 1545.82 1636.32 1542.27 Q1638.15 1538.71 1638.15 1531.6 Q1638.15 1524.47 1636.32 1520.93 Q1634.52 1517.37 1630.88 1517.37 M1630.88 1513.66 Q1636.69 1513.66 1639.75 1518.27 Q1642.83 1522.85 1642.83 1531.6 Q1642.83 1540.33 1639.75 1544.94 Q1636.69 1549.52 1630.88 1549.52 Q1625.07 1549.52 1621.99 1544.94 Q1618.94 1540.33 1618.94 1531.6 Q1618.94 1522.85 1621.99 1518.27 Q1625.07 1513.66 1630.88 1513.66 Z" fill="#000000" fill-rule="evenodd" fill-opacity="1" /><path clip-path="url(#clip860)" d="M2086.04 1518.36 L2074.24 1536.81 L2086.04 1536.81 L2086.04 1518.36 M2084.82 1514.29 L2090.69 1514.29 L2090.69 1536.81 L2095.63 1536.81 L2095.63 1540.7 L2090.69 1540.7 L2090.69 1548.85 L2086.04 1548.85 L2086.04 1540.7 L2070.44 1540.7 L2070.44 1536.19 L2084.82 1514.29 Z" fill="#000000" fill-rule="evenodd" fill-opacity="1" /><path clip-path="url(#clip860)" d="M2113.36 1517.37 Q2109.75 1517.37 2107.92 1520.93 Q2106.11 1524.47 2106.11 1531.6 Q2106.11 1538.71 2107.92 1542.27 Q2109.75 1545.82 2113.36 1545.82 Q2116.99 1545.82 2118.8 1542.27 Q2120.63 1538.71 2120.63 1531.6 Q2120.63 1524.47 2118.8 1520.93 Q2116.99 1517.37 2113.36 1517.37 M2113.36 1513.66 Q2119.17 1513.66 2122.22 1518.27 Q2125.3 1522.85 2125.3 1531.6 Q2125.3 1540.33 2122.22 1544.94 Q2119.17 1549.52 2113.36 1549.52 Q2107.55 1549.52 2104.47 1544.94 Q2101.41 1540.33 2101.41 1531.6 Q2101.41 1522.85 2104.47 1518.27 Q2107.55 1513.66 2113.36 1513.66 Z" fill="#000000" fill-rule="evenodd" fill-opacity="1" /><polyline clip-path="url(#clip862)" style="stroke:#000000; stroke-linecap:round; stroke-linejoin:round; stroke-width:2; stroke-opacity:0.1; fill:none" points="
  156.598,1456.64 2352.76,1456.64 
  "/>
<polyline clip-path="url(#clip862)" style="stroke:#000000; stroke-linecap:round; stroke-linejoin:round; stroke-width:2; stroke-opacity:0.1; fill:none" points="
  156.598,1250.77 2352.76,1250.77 
  "/>
<polyline clip-path="url(#clip862)" style="stroke:#000000; stroke-linecap:round; stroke-linejoin:round; stroke-width:2; stroke-opacity:0.1; fill:none" points="
  156.598,1044.9 2352.76,1044.9 
  "/>
<polyline clip-path="url(#clip862)" style="stroke:#000000; stroke-linecap:round; stroke-linejoin:round; stroke-width:2; stroke-opacity:0.1; fill:none" points="
  156.598,839.021 2352.76,839.021 
  "/>
<polyline clip-path="url(#clip862)" style="stroke:#000000; stroke-linecap:round; stroke-linejoin:round; stroke-width:2; stroke-opacity:0.1; fill:none" points="
  156.598,633.146 2352.76,633.146 
  "/>
<polyline clip-path="url(#clip862)" style="stroke:#000000; stroke-linecap:round; stroke-linejoin:round; stroke-width:2; stroke-opacity:0.1; fill:none" points="
  156.598,427.272 2352.76,427.272 
  "/>
<polyline clip-path="url(#clip862)" style="stroke:#000000; stroke-linecap:round; stroke-linejoin:round; stroke-width:2; stroke-opacity:0.1; fill:none" points="
  156.598,221.398 2352.76,221.398 
  "/>
<polyline clip-path="url(#clip860)" style="stroke:#000000; stroke-linecap:round; stroke-linejoin:round; stroke-width:4; stroke-opacity:1; fill:none" points="
  156.598,1486.45 156.598,47.2441 
  "/>
<polyline clip-path="url(#clip860)" style="stroke:#000000; stroke-linecap:round; stroke-linejoin:round; stroke-width:4; stroke-opacity:1; fill:none" points="
  156.598,1456.64 175.496,1456.64 
  "/>
<polyline clip-path="url(#clip860)" style="stroke:#000000; stroke-linecap:round; stroke-linejoin:round; stroke-width:4; stroke-opacity:1; fill:none" points="
  156.598,1250.77 175.496,1250.77 
  "/>
<polyline clip-path="url(#clip860)" style="stroke:#000000; stroke-linecap:round; stroke-linejoin:round; stroke-width:4; stroke-opacity:1; fill:none" points="
  156.598,1044.9 175.496,1044.9 
  "/>
<polyline clip-path="url(#clip860)" style="stroke:#000000; stroke-linecap:round; stroke-linejoin:round; stroke-width:4; stroke-opacity:1; fill:none" points="
  156.598,839.021 175.496,839.021 
  "/>
<polyline clip-path="url(#clip860)" style="stroke:#000000; stroke-linecap:round; stroke-linejoin:round; stroke-width:4; stroke-opacity:1; fill:none" points="
  156.598,633.146 175.496,633.146 
  "/>
<polyline clip-path="url(#clip860)" style="stroke:#000000; stroke-linecap:round; stroke-linejoin:round; stroke-width:4; stroke-opacity:1; fill:none" points="
  156.598,427.272 175.496,427.272 
  "/>
<polyline clip-path="url(#clip860)" style="stroke:#000000; stroke-linecap:round; stroke-linejoin:round; stroke-width:4; stroke-opacity:1; fill:none" points="
  156.598,221.398 175.496,221.398 
  "/>
<path clip-path="url(#clip860)" d="M63.4226 1442.44 Q59.8115 1442.44 57.9828 1446.01 Q56.1773 1449.55 56.1773 1456.68 Q56.1773 1463.78 57.9828 1467.35 Q59.8115 1470.89 63.4226 1470.89 Q67.0569 1470.89 68.8624 1467.35 Q70.6911 1463.78 70.6911 1456.68 Q70.6911 1449.55 68.8624 1446.01 Q67.0569 1442.44 63.4226 1442.44 M63.4226 1438.74 Q69.2328 1438.74 72.2883 1443.35 Q75.367 1447.93 75.367 1456.68 Q75.367 1465.41 72.2883 1470.01 Q69.2328 1474.6 63.4226 1474.6 Q57.6125 1474.6 54.5338 1470.01 Q51.4782 1465.41 51.4782 1456.68 Q51.4782 1447.93 54.5338 1443.35 Q57.6125 1438.74 63.4226 1438.74 Z" fill="#000000" fill-rule="evenodd" fill-opacity="1" /><path clip-path="url(#clip860)" d="M83.5845 1468.04 L88.4688 1468.04 L88.4688 1473.92 L83.5845 1473.92 L83.5845 1468.04 Z" fill="#000000" fill-rule="evenodd" fill-opacity="1" /><path clip-path="url(#clip860)" d="M108.654 1442.44 Q105.043 1442.44 103.214 1446.01 Q101.409 1449.55 101.409 1456.68 Q101.409 1463.78 103.214 1467.35 Q105.043 1470.89 108.654 1470.89 Q112.288 1470.89 114.094 1467.35 Q115.922 1463.78 115.922 1456.68 Q115.922 1449.55 114.094 1446.01 Q112.288 1442.44 108.654 1442.44 M108.654 1438.74 Q114.464 1438.74 117.52 1443.35 Q120.598 1447.93 120.598 1456.68 Q120.598 1465.41 117.52 1470.01 Q114.464 1474.6 108.654 1474.6 Q102.844 1474.6 99.765 1470.01 Q96.7095 1465.41 96.7095 1456.68 Q96.7095 1447.93 99.765 1443.35 Q102.844 1438.74 108.654 1438.74 Z" fill="#000000" fill-rule="evenodd" fill-opacity="1" /><path clip-path="url(#clip860)" d="M64.6495 1236.57 Q61.0384 1236.57 59.2097 1240.13 Q57.4041 1243.67 57.4041 1250.8 Q57.4041 1257.91 59.2097 1261.48 Q61.0384 1265.02 64.6495 1265.02 Q68.2837 1265.02 70.0892 1261.48 Q71.9179 1257.91 71.9179 1250.8 Q71.9179 1243.67 70.0892 1240.13 Q68.2837 1236.57 64.6495 1236.57 M64.6495 1232.86 Q70.4596 1232.86 73.5152 1237.47 Q76.5938 1242.05 76.5938 1250.8 Q76.5938 1259.53 73.5152 1264.14 Q70.4596 1268.72 64.6495 1268.72 Q58.8393 1268.72 55.7606 1264.14 Q52.7051 1259.53 52.7051 1250.8 Q52.7051 1242.05 55.7606 1237.47 Q58.8393 1232.86 64.6495 1232.86 Z" fill="#000000" fill-rule="evenodd" fill-opacity="1" /><path clip-path="url(#clip860)" d="M84.8114 1262.17 L89.6956 1262.17 L89.6956 1268.05 L84.8114 1268.05 L84.8114 1262.17 Z" fill="#000000" fill-rule="evenodd" fill-opacity="1" /><path clip-path="url(#clip860)" d="M100.691 1264.11 L108.33 1264.11 L108.33 1237.75 L100.02 1239.42 L100.02 1235.16 L108.283 1233.49 L112.959 1233.49 L112.959 1264.11 L120.598 1264.11 L120.598 1268.05 L100.691 1268.05 L100.691 1264.11 Z" fill="#000000" fill-rule="evenodd" fill-opacity="1" /><path clip-path="url(#clip860)" d="M65.0198 1030.69 Q61.4087 1030.69 59.58 1034.26 Q57.7745 1037.8 57.7745 1044.93 Q57.7745 1052.04 59.58 1055.6 Q61.4087 1059.14 65.0198 1059.14 Q68.6541 1059.14 70.4596 1055.6 Q72.2883 1052.04 72.2883 1044.93 Q72.2883 1037.8 70.4596 1034.26 Q68.6541 1030.69 65.0198 1030.69 M65.0198 1026.99 Q70.83 1026.99 73.8855 1031.6 Q76.9642 1036.18 76.9642 1044.93 Q76.9642 1053.66 73.8855 1058.26 Q70.83 1062.85 65.0198 1062.85 Q59.2097 1062.85 56.131 1058.26 Q53.0754 1053.66 53.0754 1044.93 Q53.0754 1036.18 56.131 1031.6 Q59.2097 1026.99 65.0198 1026.99 Z" fill="#000000" fill-rule="evenodd" fill-opacity="1" /><path clip-path="url(#clip860)" d="M85.1818 1056.3 L90.066 1056.3 L90.066 1062.18 L85.1818 1062.18 L85.1818 1056.3 Z" fill="#000000" fill-rule="evenodd" fill-opacity="1" /><path clip-path="url(#clip860)" d="M104.279 1058.24 L120.598 1058.24 L120.598 1062.18 L98.6539 1062.18 L98.6539 1058.24 Q101.316 1055.49 105.899 1050.86 Q110.506 1046.2 111.686 1044.86 Q113.932 1042.34 114.811 1040.6 Q115.714 1038.84 115.714 1037.15 Q115.714 1034.4 113.77 1032.66 Q111.848 1030.93 108.746 1030.93 Q106.547 1030.93 104.094 1031.69 Q101.663 1032.45 98.8854 1034 L98.8854 1029.28 Q101.709 1028.15 104.163 1027.57 Q106.617 1026.99 108.654 1026.99 Q114.024 1026.99 117.219 1029.68 Q120.413 1032.36 120.413 1036.85 Q120.413 1038.98 119.603 1040.9 Q118.816 1042.8 116.709 1045.39 Q116.131 1046.06 113.029 1049.28 Q109.927 1052.48 104.279 1058.24 Z" fill="#000000" fill-rule="evenodd" fill-opacity="1" /><path clip-path="url(#clip860)" d="M64.0708 824.819 Q60.4597 824.819 58.631 828.384 Q56.8254 831.926 56.8254 839.055 Q56.8254 846.162 58.631 849.727 Q60.4597 853.268 64.0708 853.268 Q67.705 853.268 69.5105 849.727 Q71.3392 846.162 71.3392 839.055 Q71.3392 831.926 69.5105 828.384 Q67.705 824.819 64.0708 824.819 M64.0708 821.116 Q69.8809 821.116 72.9365 825.722 Q76.0151 830.305 76.0151 839.055 Q76.0151 847.782 72.9365 852.389 Q69.8809 856.972 64.0708 856.972 Q58.2606 856.972 55.1819 852.389 Q52.1264 847.782 52.1264 839.055 Q52.1264 830.305 55.1819 825.722 Q58.2606 821.116 64.0708 821.116 Z" fill="#000000" fill-rule="evenodd" fill-opacity="1" /><path clip-path="url(#clip860)" d="M84.2327 850.421 L89.1169 850.421 L89.1169 856.301 L84.2327 856.301 L84.2327 850.421 Z" fill="#000000" fill-rule="evenodd" fill-opacity="1" /><path clip-path="url(#clip860)" d="M113.469 837.667 Q116.825 838.384 118.7 840.653 Q120.598 842.921 120.598 846.254 Q120.598 851.37 117.08 854.171 Q113.561 856.972 107.08 856.972 Q104.904 856.972 102.589 856.532 Q100.297 856.116 97.8437 855.259 L97.8437 850.745 Q99.7882 851.879 102.103 852.458 Q104.418 853.037 106.941 853.037 Q111.339 853.037 113.631 851.301 Q115.945 849.565 115.945 846.254 Q115.945 843.199 113.793 841.486 Q111.663 839.75 107.844 839.75 L103.816 839.75 L103.816 835.907 L108.029 835.907 Q111.478 835.907 113.307 834.542 Q115.135 833.153 115.135 830.56 Q115.135 827.898 113.237 826.486 Q111.362 825.051 107.844 825.051 Q105.922 825.051 103.723 825.468 Q101.524 825.884 98.8854 826.764 L98.8854 822.597 Q101.547 821.856 103.862 821.486 Q106.2 821.116 108.26 821.116 Q113.584 821.116 116.686 823.546 Q119.788 825.954 119.788 830.074 Q119.788 832.944 118.145 834.935 Q116.501 836.903 113.469 837.667 Z" fill="#000000" fill-rule="evenodd" fill-opacity="1" /><path clip-path="url(#clip860)" d="M62.9365 618.945 Q59.3254 618.945 57.4967 622.51 Q55.6912 626.051 55.6912 633.181 Q55.6912 640.288 57.4967 643.852 Q59.3254 647.394 62.9365 647.394 Q66.5707 647.394 68.3763 643.852 Q70.205 640.288 70.205 633.181 Q70.205 626.051 68.3763 622.51 Q66.5707 618.945 62.9365 618.945 M62.9365 615.241 Q68.7467 615.241 71.8022 619.848 Q74.8809 624.431 74.8809 633.181 Q74.8809 641.908 71.8022 646.514 Q68.7467 651.098 62.9365 651.098 Q57.1264 651.098 54.0477 646.514 Q50.9921 641.908 50.9921 633.181 Q50.9921 624.431 54.0477 619.848 Q57.1264 615.241 62.9365 615.241 Z" fill="#000000" fill-rule="evenodd" fill-opacity="1" /><path clip-path="url(#clip860)" d="M83.0984 644.547 L87.9827 644.547 L87.9827 650.426 L83.0984 650.426 L83.0984 644.547 Z" fill="#000000" fill-rule="evenodd" fill-opacity="1" /><path clip-path="url(#clip860)" d="M111.015 619.94 L99.2095 638.389 L111.015 638.389 L111.015 619.94 M109.788 615.866 L115.668 615.866 L115.668 638.389 L120.598 638.389 L120.598 642.278 L115.668 642.278 L115.668 650.426 L111.015 650.426 L111.015 642.278 L95.4132 642.278 L95.4132 637.764 L109.788 615.866 Z" fill="#000000" fill-rule="evenodd" fill-opacity="1" /><path clip-path="url(#clip860)" d="M64.418 413.071 Q60.8069 413.071 58.9782 416.635 Q57.1726 420.177 57.1726 427.307 Q57.1726 434.413 58.9782 437.978 Q60.8069 441.52 64.418 441.52 Q68.0522 441.52 69.8578 437.978 Q71.6865 434.413 71.6865 427.307 Q71.6865 420.177 69.8578 416.635 Q68.0522 413.071 64.418 413.071 M64.418 409.367 Q70.2281 409.367 73.2837 413.973 Q76.3624 418.557 76.3624 427.307 Q76.3624 436.034 73.2837 440.64 Q70.2281 445.223 64.418 445.223 Q58.6078 445.223 55.5291 440.64 Q52.4736 436.034 52.4736 427.307 Q52.4736 418.557 55.5291 413.973 Q58.6078 409.367 64.418 409.367 Z" fill="#000000" fill-rule="evenodd" fill-opacity="1" /><path clip-path="url(#clip860)" d="M84.5799 438.672 L89.4641 438.672 L89.4641 444.552 L84.5799 444.552 L84.5799 438.672 Z" fill="#000000" fill-rule="evenodd" fill-opacity="1" /><path clip-path="url(#clip860)" d="M99.6956 409.992 L118.052 409.992 L118.052 413.927 L103.978 413.927 L103.978 422.399 Q104.996 422.052 106.015 421.89 Q107.033 421.705 108.052 421.705 Q113.839 421.705 117.219 424.876 Q120.598 428.047 120.598 433.464 Q120.598 439.043 117.126 442.145 Q113.654 445.223 107.334 445.223 Q105.159 445.223 102.89 444.853 Q100.645 444.483 98.2372 443.742 L98.2372 439.043 Q100.321 440.177 102.543 440.733 Q104.765 441.288 107.242 441.288 Q111.246 441.288 113.584 439.182 Q115.922 437.075 115.922 433.464 Q115.922 429.853 113.584 427.747 Q111.246 425.64 107.242 425.64 Q105.367 425.64 103.492 426.057 Q101.64 426.473 99.6956 427.353 L99.6956 409.992 Z" fill="#000000" fill-rule="evenodd" fill-opacity="1" /><path clip-path="url(#clip860)" d="M63.2606 207.196 Q59.6495 207.196 57.8208 210.761 Q56.0152 214.303 56.0152 221.432 Q56.0152 228.539 57.8208 232.104 Q59.6495 235.645 63.2606 235.645 Q66.8948 235.645 68.7004 232.104 Q70.5291 228.539 70.5291 221.432 Q70.5291 214.303 68.7004 210.761 Q66.8948 207.196 63.2606 207.196 M63.2606 203.493 Q69.0707 203.493 72.1263 208.099 Q75.205 212.682 75.205 221.432 Q75.205 230.159 72.1263 234.766 Q69.0707 239.349 63.2606 239.349 Q57.4504 239.349 54.3717 234.766 Q51.3162 230.159 51.3162 221.432 Q51.3162 212.682 54.3717 208.099 Q57.4504 203.493 63.2606 203.493 Z" fill="#000000" fill-rule="evenodd" fill-opacity="1" /><path clip-path="url(#clip860)" d="M83.4225 232.798 L88.3067 232.798 L88.3067 238.678 L83.4225 238.678 L83.4225 232.798 Z" fill="#000000" fill-rule="evenodd" fill-opacity="1" /><path clip-path="url(#clip860)" d="M109.071 219.534 Q105.922 219.534 104.071 221.687 Q102.242 223.84 102.242 227.59 Q102.242 231.317 104.071 233.493 Q105.922 235.645 109.071 235.645 Q112.219 235.645 114.047 233.493 Q115.899 231.317 115.899 227.59 Q115.899 223.84 114.047 221.687 Q112.219 219.534 109.071 219.534 M118.353 204.882 L118.353 209.141 Q116.594 208.307 114.788 207.868 Q113.006 207.428 111.246 207.428 Q106.617 207.428 104.163 210.553 Q101.733 213.678 101.385 219.997 Q102.751 217.983 104.811 216.919 Q106.871 215.831 109.348 215.831 Q114.557 215.831 117.566 219.002 Q120.598 222.15 120.598 227.59 Q120.598 232.914 117.45 236.131 Q114.302 239.349 109.071 239.349 Q103.075 239.349 99.9039 234.766 Q96.7326 230.159 96.7326 221.432 Q96.7326 213.238 100.621 208.377 Q104.51 203.493 111.061 203.493 Q112.82 203.493 114.603 203.84 Q116.408 204.187 118.353 204.882 Z" fill="#000000" fill-rule="evenodd" fill-opacity="1" /><circle clip-path="url(#clip862)" cx="218.754" cy="1215.5" r="14.4" fill="#009af9" fill-rule="evenodd" fill-opacity="1" stroke="#000000" stroke-opacity="1" stroke-width="3.2"/>
<circle clip-path="url(#clip862)" cx="266.936" cy="87.9763" r="14.4" fill="#009af9" fill-rule="evenodd" fill-opacity="1" stroke="#000000" stroke-opacity="1" stroke-width="3.2"/>
<circle clip-path="url(#clip862)" cx="315.119" cy="316.966" r="14.4" fill="#009af9" fill-rule="evenodd" fill-opacity="1" stroke="#000000" stroke-opacity="1" stroke-width="3.2"/>
<circle clip-path="url(#clip862)" cx="363.301" cy="1207.96" r="14.4" fill="#009af9" fill-rule="evenodd" fill-opacity="1" stroke="#000000" stroke-opacity="1" stroke-width="3.2"/>
<circle clip-path="url(#clip862)" cx="411.484" cy="1308.32" r="14.4" fill="#009af9" fill-rule="evenodd" fill-opacity="1" stroke="#000000" stroke-opacity="1" stroke-width="3.2"/>
<circle clip-path="url(#clip862)" cx="459.666" cy="618.926" r="14.4" fill="#009af9" fill-rule="evenodd" fill-opacity="1" stroke="#000000" stroke-opacity="1" stroke-width="3.2"/>
<circle clip-path="url(#clip862)" cx="507.849" cy="1426.12" r="14.4" fill="#009af9" fill-rule="evenodd" fill-opacity="1" stroke="#000000" stroke-opacity="1" stroke-width="3.2"/>
<circle clip-path="url(#clip862)" cx="556.031" cy="440.662" r="14.4" fill="#009af9" fill-rule="evenodd" fill-opacity="1" stroke="#000000" stroke-opacity="1" stroke-width="3.2"/>
<circle clip-path="url(#clip862)" cx="604.214" cy="513.166" r="14.4" fill="#009af9" fill-rule="evenodd" fill-opacity="1" stroke="#000000" stroke-opacity="1" stroke-width="3.2"/>
<circle clip-path="url(#clip862)" cx="652.396" cy="273.9" r="14.4" fill="#009af9" fill-rule="evenodd" fill-opacity="1" stroke="#000000" stroke-opacity="1" stroke-width="3.2"/>
<circle clip-path="url(#clip862)" cx="700.578" cy="997.708" r="14.4" fill="#009af9" fill-rule="evenodd" fill-opacity="1" stroke="#000000" stroke-opacity="1" stroke-width="3.2"/>
<circle clip-path="url(#clip862)" cx="748.761" cy="868.609" r="14.4" fill="#009af9" fill-rule="evenodd" fill-opacity="1" stroke="#000000" stroke-opacity="1" stroke-width="3.2"/>
<circle clip-path="url(#clip862)" cx="796.943" cy="673.513" r="14.4" fill="#009af9" fill-rule="evenodd" fill-opacity="1" stroke="#000000" stroke-opacity="1" stroke-width="3.2"/>
<circle clip-path="url(#clip862)" cx="845.126" cy="567.29" r="14.4" fill="#009af9" fill-rule="evenodd" fill-opacity="1" stroke="#000000" stroke-opacity="1" stroke-width="3.2"/>
<circle clip-path="url(#clip862)" cx="893.308" cy="1227.05" r="14.4" fill="#009af9" fill-rule="evenodd" fill-opacity="1" stroke="#000000" stroke-opacity="1" stroke-width="3.2"/>
<circle clip-path="url(#clip862)" cx="941.491" cy="1445.72" r="14.4" fill="#009af9" fill-rule="evenodd" fill-opacity="1" stroke="#000000" stroke-opacity="1" stroke-width="3.2"/>
<circle clip-path="url(#clip862)" cx="989.673" cy="1153.39" r="14.4" fill="#009af9" fill-rule="evenodd" fill-opacity="1" stroke="#000000" stroke-opacity="1" stroke-width="3.2"/>
<circle clip-path="url(#clip862)" cx="1037.86" cy="784.705" r="14.4" fill="#009af9" fill-rule="evenodd" fill-opacity="1" stroke="#000000" stroke-opacity="1" stroke-width="3.2"/>
<circle clip-path="url(#clip862)" cx="1086.04" cy="658.559" r="14.4" fill="#009af9" fill-rule="evenodd" fill-opacity="1" stroke="#000000" stroke-opacity="1" stroke-width="3.2"/>
<circle clip-path="url(#clip862)" cx="1134.22" cy="844.094" r="14.4" fill="#009af9" fill-rule="evenodd" fill-opacity="1" stroke="#000000" stroke-opacity="1" stroke-width="3.2"/>
<circle clip-path="url(#clip862)" cx="1182.4" cy="1158.08" r="14.4" fill="#009af9" fill-rule="evenodd" fill-opacity="1" stroke="#000000" stroke-opacity="1" stroke-width="3.2"/>
<circle clip-path="url(#clip862)" cx="1230.59" cy="641.526" r="14.4" fill="#009af9" fill-rule="evenodd" fill-opacity="1" stroke="#000000" stroke-opacity="1" stroke-width="3.2"/>
<circle clip-path="url(#clip862)" cx="1278.77" cy="887.475" r="14.4" fill="#009af9" fill-rule="evenodd" fill-opacity="1" stroke="#000000" stroke-opacity="1" stroke-width="3.2"/>
<circle clip-path="url(#clip862)" cx="1326.95" cy="707.201" r="14.4" fill="#009af9" fill-rule="evenodd" fill-opacity="1" stroke="#000000" stroke-opacity="1" stroke-width="3.2"/>
<circle clip-path="url(#clip862)" cx="1375.13" cy="1065.4" r="14.4" fill="#009af9" fill-rule="evenodd" fill-opacity="1" stroke="#000000" stroke-opacity="1" stroke-width="3.2"/>
<circle clip-path="url(#clip862)" cx="1423.32" cy="1075.38" r="14.4" fill="#009af9" fill-rule="evenodd" fill-opacity="1" stroke="#000000" stroke-opacity="1" stroke-width="3.2"/>
<circle clip-path="url(#clip862)" cx="1471.5" cy="1286.04" r="14.4" fill="#009af9" fill-rule="evenodd" fill-opacity="1" stroke="#000000" stroke-opacity="1" stroke-width="3.2"/>
<circle clip-path="url(#clip862)" cx="1519.68" cy="534.367" r="14.4" fill="#009af9" fill-rule="evenodd" fill-opacity="1" stroke="#000000" stroke-opacity="1" stroke-width="3.2"/>
<circle clip-path="url(#clip862)" cx="1567.86" cy="972.854" r="14.4" fill="#009af9" fill-rule="evenodd" fill-opacity="1" stroke="#000000" stroke-opacity="1" stroke-width="3.2"/>
<circle clip-path="url(#clip862)" cx="1616.05" cy="285.955" r="14.4" fill="#009af9" fill-rule="evenodd" fill-opacity="1" stroke="#000000" stroke-opacity="1" stroke-width="3.2"/>
<circle clip-path="url(#clip862)" cx="1664.23" cy="547.199" r="14.4" fill="#009af9" fill-rule="evenodd" fill-opacity="1" stroke="#000000" stroke-opacity="1" stroke-width="3.2"/>
<circle clip-path="url(#clip862)" cx="1712.41" cy="631.136" r="14.4" fill="#009af9" fill-rule="evenodd" fill-opacity="1" stroke="#000000" stroke-opacity="1" stroke-width="3.2"/>
<circle clip-path="url(#clip862)" cx="1760.59" cy="298.593" r="14.4" fill="#009af9" fill-rule="evenodd" fill-opacity="1" stroke="#000000" stroke-opacity="1" stroke-width="3.2"/>
<circle clip-path="url(#clip862)" cx="1808.78" cy="389.445" r="14.4" fill="#009af9" fill-rule="evenodd" fill-opacity="1" stroke="#000000" stroke-opacity="1" stroke-width="3.2"/>
<circle clip-path="url(#clip862)" cx="1856.96" cy="550.892" r="14.4" fill="#009af9" fill-rule="evenodd" fill-opacity="1" stroke="#000000" stroke-opacity="1" stroke-width="3.2"/>
<circle clip-path="url(#clip862)" cx="1905.14" cy="1324.51" r="14.4" fill="#009af9" fill-rule="evenodd" fill-opacity="1" stroke="#000000" stroke-opacity="1" stroke-width="3.2"/>
<circle clip-path="url(#clip862)" cx="1953.32" cy="548.221" r="14.4" fill="#009af9" fill-rule="evenodd" fill-opacity="1" stroke="#000000" stroke-opacity="1" stroke-width="3.2"/>
<circle clip-path="url(#clip862)" cx="2001.51" cy="1303.83" r="14.4" fill="#009af9" fill-rule="evenodd" fill-opacity="1" stroke="#000000" stroke-opacity="1" stroke-width="3.2"/>
<circle clip-path="url(#clip862)" cx="2049.69" cy="579.645" r="14.4" fill="#009af9" fill-rule="evenodd" fill-opacity="1" stroke="#000000" stroke-opacity="1" stroke-width="3.2"/>
<circle clip-path="url(#clip862)" cx="2097.87" cy="721.924" r="14.4" fill="#009af9" fill-rule="evenodd" fill-opacity="1" stroke="#000000" stroke-opacity="1" stroke-width="3.2"/>
<circle clip-path="url(#clip862)" cx="2146.05" cy="987.007" r="14.4" fill="#009af9" fill-rule="evenodd" fill-opacity="1" stroke="#000000" stroke-opacity="1" stroke-width="3.2"/>
<circle clip-path="url(#clip862)" cx="2194.24" cy="738.122" r="14.4" fill="#009af9" fill-rule="evenodd" fill-opacity="1" stroke="#000000" stroke-opacity="1" stroke-width="3.2"/>
<circle clip-path="url(#clip862)" cx="2242.42" cy="996.083" r="14.4" fill="#009af9" fill-rule="evenodd" fill-opacity="1" stroke="#000000" stroke-opacity="1" stroke-width="3.2"/>
<circle clip-path="url(#clip862)" cx="2290.6" cy="1363.95" r="14.4" fill="#009af9" fill-rule="evenodd" fill-opacity="1" stroke="#000000" stroke-opacity="1" stroke-width="3.2"/>
<circle clip-path="url(#clip862)" cx="218.754" cy="1016.68" r="14.4" fill="#e26f46" fill-rule="evenodd" fill-opacity="1" stroke="#000000" stroke-opacity="1" stroke-width="3.2"/>
<circle clip-path="url(#clip862)" cx="266.936" cy="1064.69" r="14.4" fill="#e26f46" fill-rule="evenodd" fill-opacity="1" stroke="#000000" stroke-opacity="1" stroke-width="3.2"/>
<circle clip-path="url(#clip862)" cx="315.119" cy="614.686" r="14.4" fill="#e26f46" fill-rule="evenodd" fill-opacity="1" stroke="#000000" stroke-opacity="1" stroke-width="3.2"/>
<circle clip-path="url(#clip862)" cx="363.301" cy="842.147" r="14.4" fill="#e26f46" fill-rule="evenodd" fill-opacity="1" stroke="#000000" stroke-opacity="1" stroke-width="3.2"/>
<circle clip-path="url(#clip862)" cx="411.484" cy="1058.14" r="14.4" fill="#e26f46" fill-rule="evenodd" fill-opacity="1" stroke="#000000" stroke-opacity="1" stroke-width="3.2"/>
<circle clip-path="url(#clip862)" cx="459.666" cy="1285.58" r="14.4" fill="#e26f46" fill-rule="evenodd" fill-opacity="1" stroke="#000000" stroke-opacity="1" stroke-width="3.2"/>
<circle clip-path="url(#clip862)" cx="507.849" cy="833.102" r="14.4" fill="#e26f46" fill-rule="evenodd" fill-opacity="1" stroke="#000000" stroke-opacity="1" stroke-width="3.2"/>
<circle clip-path="url(#clip862)" cx="556.031" cy="755.09" r="14.4" fill="#e26f46" fill-rule="evenodd" fill-opacity="1" stroke="#000000" stroke-opacity="1" stroke-width="3.2"/>
<circle clip-path="url(#clip862)" cx="604.214" cy="1305.6" r="14.4" fill="#e26f46" fill-rule="evenodd" fill-opacity="1" stroke="#000000" stroke-opacity="1" stroke-width="3.2"/>
<circle clip-path="url(#clip862)" cx="652.396" cy="1124.57" r="14.4" fill="#e26f46" fill-rule="evenodd" fill-opacity="1" stroke="#000000" stroke-opacity="1" stroke-width="3.2"/>
<circle clip-path="url(#clip862)" cx="700.578" cy="1327.53" r="14.4" fill="#e26f46" fill-rule="evenodd" fill-opacity="1" stroke="#000000" stroke-opacity="1" stroke-width="3.2"/>
<circle clip-path="url(#clip862)" cx="748.761" cy="297.838" r="14.4" fill="#e26f46" fill-rule="evenodd" fill-opacity="1" stroke="#000000" stroke-opacity="1" stroke-width="3.2"/>
<circle clip-path="url(#clip862)" cx="796.943" cy="460.405" r="14.4" fill="#e26f46" fill-rule="evenodd" fill-opacity="1" stroke="#000000" stroke-opacity="1" stroke-width="3.2"/>
<circle clip-path="url(#clip862)" cx="845.126" cy="536.158" r="14.4" fill="#e26f46" fill-rule="evenodd" fill-opacity="1" stroke="#000000" stroke-opacity="1" stroke-width="3.2"/>
<circle clip-path="url(#clip862)" cx="893.308" cy="411.245" r="14.4" fill="#e26f46" fill-rule="evenodd" fill-opacity="1" stroke="#000000" stroke-opacity="1" stroke-width="3.2"/>
<circle clip-path="url(#clip862)" cx="941.491" cy="1444.21" r="14.4" fill="#e26f46" fill-rule="evenodd" fill-opacity="1" stroke="#000000" stroke-opacity="1" stroke-width="3.2"/>
<circle clip-path="url(#clip862)" cx="989.673" cy="1417.53" r="14.4" fill="#e26f46" fill-rule="evenodd" fill-opacity="1" stroke="#000000" stroke-opacity="1" stroke-width="3.2"/>
<circle clip-path="url(#clip862)" cx="1037.86" cy="1236.45" r="14.4" fill="#e26f46" fill-rule="evenodd" fill-opacity="1" stroke="#000000" stroke-opacity="1" stroke-width="3.2"/>
<circle clip-path="url(#clip862)" cx="1086.04" cy="563.594" r="14.4" fill="#e26f46" fill-rule="evenodd" fill-opacity="1" stroke="#000000" stroke-opacity="1" stroke-width="3.2"/>
<circle clip-path="url(#clip862)" cx="1134.22" cy="876.148" r="14.4" fill="#e26f46" fill-rule="evenodd" fill-opacity="1" stroke="#000000" stroke-opacity="1" stroke-width="3.2"/>
<circle clip-path="url(#clip862)" cx="1182.4" cy="306.348" r="14.4" fill="#e26f46" fill-rule="evenodd" fill-opacity="1" stroke="#000000" stroke-opacity="1" stroke-width="3.2"/>
<circle clip-path="url(#clip862)" cx="1230.59" cy="255.121" r="14.4" fill="#e26f46" fill-rule="evenodd" fill-opacity="1" stroke="#000000" stroke-opacity="1" stroke-width="3.2"/>
<circle clip-path="url(#clip862)" cx="1278.77" cy="541.894" r="14.4" fill="#e26f46" fill-rule="evenodd" fill-opacity="1" stroke="#000000" stroke-opacity="1" stroke-width="3.2"/>
<circle clip-path="url(#clip862)" cx="1326.95" cy="994.115" r="14.4" fill="#e26f46" fill-rule="evenodd" fill-opacity="1" stroke="#000000" stroke-opacity="1" stroke-width="3.2"/>
<circle clip-path="url(#clip862)" cx="1375.13" cy="1429.46" r="14.4" fill="#e26f46" fill-rule="evenodd" fill-opacity="1" stroke="#000000" stroke-opacity="1" stroke-width="3.2"/>
<circle clip-path="url(#clip862)" cx="1423.32" cy="854.266" r="14.4" fill="#e26f46" fill-rule="evenodd" fill-opacity="1" stroke="#000000" stroke-opacity="1" stroke-width="3.2"/>
<circle clip-path="url(#clip862)" cx="1471.5" cy="510.169" r="14.4" fill="#e26f46" fill-rule="evenodd" fill-opacity="1" stroke="#000000" stroke-opacity="1" stroke-width="3.2"/>
<circle clip-path="url(#clip862)" cx="1519.68" cy="621.879" r="14.4" fill="#e26f46" fill-rule="evenodd" fill-opacity="1" stroke="#000000" stroke-opacity="1" stroke-width="3.2"/>
<circle clip-path="url(#clip862)" cx="1567.86" cy="660.341" r="14.4" fill="#e26f46" fill-rule="evenodd" fill-opacity="1" stroke="#000000" stroke-opacity="1" stroke-width="3.2"/>
<circle clip-path="url(#clip862)" cx="1616.05" cy="713.502" r="14.4" fill="#e26f46" fill-rule="evenodd" fill-opacity="1" stroke="#000000" stroke-opacity="1" stroke-width="3.2"/>
<circle clip-path="url(#clip862)" cx="1664.23" cy="380.509" r="14.4" fill="#e26f46" fill-rule="evenodd" fill-opacity="1" stroke="#000000" stroke-opacity="1" stroke-width="3.2"/>
<circle clip-path="url(#clip862)" cx="1712.41" cy="613.805" r="14.4" fill="#e26f46" fill-rule="evenodd" fill-opacity="1" stroke="#000000" stroke-opacity="1" stroke-width="3.2"/>
<circle clip-path="url(#clip862)" cx="1760.59" cy="1267.08" r="14.4" fill="#e26f46" fill-rule="evenodd" fill-opacity="1" stroke="#000000" stroke-opacity="1" stroke-width="3.2"/>
<circle clip-path="url(#clip862)" cx="1808.78" cy="932.388" r="14.4" fill="#e26f46" fill-rule="evenodd" fill-opacity="1" stroke="#000000" stroke-opacity="1" stroke-width="3.2"/>
<circle clip-path="url(#clip862)" cx="1856.96" cy="1056.62" r="14.4" fill="#e26f46" fill-rule="evenodd" fill-opacity="1" stroke="#000000" stroke-opacity="1" stroke-width="3.2"/>
<circle clip-path="url(#clip862)" cx="1905.14" cy="239.556" r="14.4" fill="#e26f46" fill-rule="evenodd" fill-opacity="1" stroke="#000000" stroke-opacity="1" stroke-width="3.2"/>
<circle clip-path="url(#clip862)" cx="1953.32" cy="1386.33" r="14.4" fill="#e26f46" fill-rule="evenodd" fill-opacity="1" stroke="#000000" stroke-opacity="1" stroke-width="3.2"/>
<circle clip-path="url(#clip862)" cx="2001.51" cy="222.196" r="14.4" fill="#e26f46" fill-rule="evenodd" fill-opacity="1" stroke="#000000" stroke-opacity="1" stroke-width="3.2"/>
<circle clip-path="url(#clip862)" cx="2049.69" cy="487.211" r="14.4" fill="#e26f46" fill-rule="evenodd" fill-opacity="1" stroke="#000000" stroke-opacity="1" stroke-width="3.2"/>
<circle clip-path="url(#clip862)" cx="2097.87" cy="1286.83" r="14.4" fill="#e26f46" fill-rule="evenodd" fill-opacity="1" stroke="#000000" stroke-opacity="1" stroke-width="3.2"/>
<circle clip-path="url(#clip862)" cx="2146.05" cy="772.42" r="14.4" fill="#e26f46" fill-rule="evenodd" fill-opacity="1" stroke="#000000" stroke-opacity="1" stroke-width="3.2"/>
<circle clip-path="url(#clip862)" cx="2194.24" cy="805.489" r="14.4" fill="#e26f46" fill-rule="evenodd" fill-opacity="1" stroke="#000000" stroke-opacity="1" stroke-width="3.2"/>
<circle clip-path="url(#clip862)" cx="2242.42" cy="644.153" r="14.4" fill="#e26f46" fill-rule="evenodd" fill-opacity="1" stroke="#000000" stroke-opacity="1" stroke-width="3.2"/>
<circle clip-path="url(#clip862)" cx="2290.6" cy="555.357" r="14.4" fill="#e26f46" fill-rule="evenodd" fill-opacity="1" stroke="#000000" stroke-opacity="1" stroke-width="3.2"/>
<path clip-path="url(#clip860)" d="
M1983.1 250.738 L2279.55 250.738 L2279.55 95.2176 L1983.1 95.2176  Z
  " fill="#ffffff" fill-rule="evenodd" fill-opacity="1"/>
<polyline clip-path="url(#clip860)" style="stroke:#000000; stroke-linecap:round; stroke-linejoin:round; stroke-width:4; stroke-opacity:1; fill:none" points="
  1983.1,250.738 2279.55,250.738 2279.55,95.2176 1983.1,95.2176 1983.1,250.738 
  "/>
<circle clip-path="url(#clip860)" cx="2080.71" cy="147.058" r="23.04" fill="#009af9" fill-rule="evenodd" fill-opacity="1" stroke="#000000" stroke-opacity="1" stroke-width="5.12"/>
<path clip-path="url(#clip860)" d="M2192.16 166.745 Q2190.35 171.375 2188.64 172.787 Q2186.93 174.199 2184.06 174.199 L2180.65 174.199 L2180.65 170.634 L2183.15 170.634 Q2184.91 170.634 2185.89 169.8 Q2186.86 168.967 2188.04 165.865 L2188.8 163.921 L2178.32 138.412 L2182.83 138.412 L2190.93 158.689 L2199.03 138.412 L2203.55 138.412 L2192.16 166.745 Z" fill="#000000" fill-rule="evenodd" fill-opacity="1" /><path clip-path="url(#clip860)" d="M2210.84 160.402 L2218.48 160.402 L2218.48 134.037 L2210.17 135.703 L2210.17 131.444 L2218.43 129.778 L2223.11 129.778 L2223.11 160.402 L2230.75 160.402 L2230.75 164.338 L2210.84 164.338 L2210.84 160.402 Z" fill="#000000" fill-rule="evenodd" fill-opacity="1" /><circle clip-path="url(#clip860)" cx="2080.71" cy="198.898" r="23.04" fill="#e26f46" fill-rule="evenodd" fill-opacity="1" stroke="#000000" stroke-opacity="1" stroke-width="5.12"/>
<path clip-path="url(#clip860)" d="M2192.16 218.585 Q2190.35 223.215 2188.64 224.627 Q2186.93 226.039 2184.06 226.039 L2180.65 226.039 L2180.65 222.474 L2183.15 222.474 Q2184.91 222.474 2185.89 221.64 Q2186.86 220.807 2188.04 217.705 L2188.8 215.761 L2178.32 190.252 L2182.83 190.252 L2190.93 210.529 L2199.03 190.252 L2203.55 190.252 L2192.16 218.585 Z" fill="#000000" fill-rule="evenodd" fill-opacity="1" /><path clip-path="url(#clip860)" d="M2214.06 212.242 L2230.38 212.242 L2230.38 216.178 L2208.43 216.178 L2208.43 212.242 Q2211.09 209.488 2215.68 204.858 Q2220.28 200.205 2221.46 198.863 Q2223.71 196.34 2224.59 194.604 Q2225.49 192.844 2225.49 191.155 Q2225.49 188.4 2223.55 186.664 Q2221.63 184.928 2218.52 184.928 Q2216.33 184.928 2213.87 185.692 Q2211.44 186.455 2208.66 188.006 L2208.66 183.284 Q2211.49 182.15 2213.94 181.571 Q2216.4 180.993 2218.43 180.993 Q2223.8 180.993 2227 183.678 Q2230.19 186.363 2230.19 190.854 Q2230.19 192.983 2229.38 194.905 Q2228.59 196.803 2226.49 199.395 Q2225.91 200.067 2222.81 203.284 Q2219.71 206.479 2214.06 212.242 Z" fill="#000000" fill-rule="evenodd" fill-opacity="1" /></svg>
