<?xml version="1.0" encoding="utf-8"?>
<svg xmlns="http://www.w3.org/2000/svg" xmlns:xlink="http://www.w3.org/1999/xlink" width="600" height="400" viewBox="0 0 2400 1600">
<defs>
  <clipPath id="clip700">
    <rect x="0" y="0" width="2400" height="1600"/>
  </clipPath>
</defs>
<path clip-path="url(#clip700)" d="
M0 1600 L2400 1600 L2400 0 L0 0  Z
  " fill="#ffffff" fill-rule="evenodd" fill-opacity="1"/>
<defs>
  <clipPath id="clip701">
    <rect x="480" y="0" width="1681" height="1600"/>
  </clipPath>
</defs>
<path clip-path="url(#clip700)" d="
M156.598 1486.45 L2352.76 1486.45 L2352.76 47.2441 L156.598 47.2441  Z
  " fill="#ffffff" fill-rule="evenodd" fill-opacity="1"/>
<defs>
  <clipPath id="clip702">
    <rect x="156" y="47" width="2197" height="1440"/>
  </clipPath>
</defs>
<polyline clip-path="url(#clip702)" style="stroke:#000000; stroke-linecap:round; stroke-linejoin:round; stroke-width:2; stroke-opacity:0.1; fill:none" points="
  448.959,1486.45 448.959,47.2441 
  "/>
<polyline clip-path="url(#clip702)" style="stroke:#000000; stroke-linecap:round; stroke-linejoin:round; stroke-width:2; stroke-opacity:0.1; fill:none" points="
  909.369,1486.45 909.369,47.2441 
  "/>
<polyline clip-path="url(#clip702)" style="stroke:#000000; stroke-linecap:round; stroke-linejoin:round; stroke-width:2; stroke-opacity:0.1; fill:none" points="
  1369.78,1486.45 1369.78,47.2441 
  "/>
<polyline clip-path="url(#clip702)" style="stroke:#000000; stroke-linecap:round; stroke-linejoin:round; stroke-width:2; stroke-opacity:0.1; fill:none" points="
  1830.19,1486.45 1830.19,47.2441 
  "/>
<polyline clip-path="url(#clip702)" style="stroke:#000000; stroke-linecap:round; stroke-linejoin:round; stroke-width:2; stroke-opacity:0.1; fill:none" points="
  2290.6,1486.45 2290.6,47.2441 
  "/>
<polyline clip-path="url(#clip700)" style="stroke:#000000; stroke-linecap:round; stroke-linejoin:round; stroke-width:4; stroke-opacity:1; fill:none" points="
  156.598,1486.45 2352.76,1486.45 
  "/>
<polyline clip-path="url(#clip700)" style="stroke:#000000; stroke-linecap:round; stroke-linejoin:round; stroke-width:4; stroke-opacity:1; fill:none" points="
  448.959,1486.45 448.959,1467.55 
  "/>
<polyline clip-path="url(#clip700)" style="stroke:#000000; stroke-linecap:round; stroke-linejoin:round; stroke-width:4; stroke-opacity:1; fill:none" points="
  909.369,1486.45 909.369,1467.55 
  "/>
<polyline clip-path="url(#clip700)" style="stroke:#000000; stroke-linecap:round; stroke-linejoin:round; stroke-width:4; stroke-opacity:1; fill:none" points="
  1369.78,1486.45 1369.78,1467.55 
  "/>
<polyline clip-path="url(#clip700)" style="stroke:#000000; stroke-linecap:round; stroke-linejoin:round; stroke-width:4; stroke-opacity:1; fill:none" points="
  1830.19,1486.45 1830.19,1467.55 
  "/>
<polyline clip-path="url(#clip700)" style="stroke:#000000; stroke-linecap:round; stroke-linejoin:round; stroke-width:4; stroke-opacity:1; fill:none" points="
  2290.6,1486.45 2290.6,1467.55 
  "/>
<path clip-path="url(#clip700)" d="M443.612 1544.91 L459.931 1544.91 L459.931 1548.85 L437.987 1548.85 L437.987 1544.91 Q440.649 1542.16 445.232 1537.53 Q449.838 1532.88 451.019 1531.53 Q453.264 1529.01 454.144 1527.27 Q455.047 1525.51 455.047 1523.82 Q455.047 1521.07 453.102 1519.33 Q451.181 1517.6 448.079 1517.6 Q445.88 1517.6 443.426 1518.36 Q440.996 1519.13 438.218 1520.68 L438.218 1515.95 Q441.042 1514.82 443.496 1514.24 Q445.95 1513.66 447.987 1513.66 Q453.357 1513.66 456.551 1516.35 Q459.746 1519.03 459.746 1523.52 Q459.746 1525.65 458.936 1527.57 Q458.149 1529.47 456.042 1532.07 Q455.463 1532.74 452.362 1535.95 Q449.26 1539.15 443.612 1544.91 Z" fill="#000000" fill-rule="evenodd" fill-opacity="1" /><path clip-path="url(#clip700)" d="M912.379 1518.36 L900.573 1536.81 L912.379 1536.81 L912.379 1518.36 M911.152 1514.29 L917.031 1514.29 L917.031 1536.81 L921.962 1536.81 L921.962 1540.7 L917.031 1540.7 L917.031 1548.85 L912.379 1548.85 L912.379 1540.7 L896.777 1540.7 L896.777 1536.19 L911.152 1514.29 Z" fill="#000000" fill-rule="evenodd" fill-opacity="1" /><path clip-path="url(#clip700)" d="M1370.18 1529.7 Q1367.04 1529.7 1365.18 1531.86 Q1363.36 1534.01 1363.36 1537.76 Q1363.36 1541.49 1365.18 1543.66 Q1367.04 1545.82 1370.18 1545.82 Q1373.33 1545.82 1375.16 1543.66 Q1377.01 1541.49 1377.01 1537.76 Q1377.01 1534.01 1375.16 1531.86 Q1373.33 1529.7 1370.18 1529.7 M1379.47 1515.05 L1379.47 1519.31 Q1377.71 1518.48 1375.9 1518.04 Q1374.12 1517.6 1372.36 1517.6 Q1367.73 1517.6 1365.28 1520.72 Q1362.85 1523.85 1362.5 1530.17 Q1363.87 1528.15 1365.93 1527.09 Q1367.99 1526 1370.46 1526 Q1375.67 1526 1378.68 1529.17 Q1381.71 1532.32 1381.71 1537.76 Q1381.71 1543.08 1378.56 1546.3 Q1375.42 1549.52 1370.18 1549.52 Q1364.19 1549.52 1361.02 1544.94 Q1357.85 1540.33 1357.85 1531.6 Q1357.85 1523.41 1361.74 1518.55 Q1365.62 1513.66 1372.18 1513.66 Q1373.93 1513.66 1375.72 1514.01 Q1377.52 1514.36 1379.47 1515.05 Z" fill="#000000" fill-rule="evenodd" fill-opacity="1" /><path clip-path="url(#clip700)" d="M1830.19 1532.44 Q1826.86 1532.44 1824.94 1534.22 Q1823.04 1536 1823.04 1539.13 Q1823.04 1542.25 1824.94 1544.03 Q1826.86 1545.82 1830.19 1545.82 Q1833.52 1545.82 1835.44 1544.03 Q1837.37 1542.23 1837.37 1539.13 Q1837.37 1536 1835.44 1534.22 Q1833.55 1532.44 1830.19 1532.44 M1825.51 1530.45 Q1822.5 1529.7 1820.82 1527.64 Q1819.15 1525.58 1819.15 1522.62 Q1819.15 1518.48 1822.09 1516.07 Q1825.05 1513.66 1830.19 1513.66 Q1835.35 1513.66 1838.29 1516.07 Q1841.23 1518.48 1841.23 1522.62 Q1841.23 1525.58 1839.54 1527.64 Q1837.88 1529.7 1834.89 1530.45 Q1838.27 1531.23 1840.14 1533.52 Q1842.04 1535.82 1842.04 1539.13 Q1842.04 1544.15 1838.96 1546.83 Q1835.91 1549.52 1830.19 1549.52 Q1824.47 1549.52 1821.39 1546.83 Q1818.34 1544.15 1818.34 1539.13 Q1818.34 1535.82 1820.24 1533.52 Q1822.13 1531.23 1825.51 1530.45 M1823.8 1523.06 Q1823.8 1525.75 1825.47 1527.25 Q1827.16 1528.76 1830.19 1528.76 Q1833.2 1528.76 1834.89 1527.25 Q1836.6 1525.75 1836.6 1523.06 Q1836.6 1520.38 1834.89 1518.87 Q1833.2 1517.37 1830.19 1517.37 Q1827.16 1517.37 1825.47 1518.87 Q1823.8 1520.38 1823.8 1523.06 Z" fill="#000000" fill-rule="evenodd" fill-opacity="1" /><path clip-path="url(#clip700)" d="M2265.29 1544.91 L2272.93 1544.91 L2272.93 1518.55 L2264.62 1520.21 L2264.62 1515.95 L2272.88 1514.29 L2277.56 1514.29 L2277.56 1544.91 L2285.2 1544.91 L2285.2 1548.85 L2265.29 1548.85 L2265.29 1544.91 Z" fill="#000000" fill-rule="evenodd" fill-opacity="1" /><path clip-path="url(#clip700)" d="M2304.64 1517.37 Q2301.03 1517.37 2299.2 1520.93 Q2297.39 1524.47 2297.39 1531.6 Q2297.39 1538.71 2299.2 1542.27 Q2301.03 1545.82 2304.64 1545.82 Q2308.27 1545.82 2310.08 1542.27 Q2311.91 1538.71 2311.91 1531.6 Q2311.91 1524.47 2310.08 1520.93 Q2308.27 1517.37 2304.64 1517.37 M2304.64 1513.66 Q2310.45 1513.66 2313.51 1518.27 Q2316.58 1522.85 2316.58 1531.6 Q2316.58 1540.33 2313.51 1544.94 Q2310.45 1549.52 2304.64 1549.52 Q2298.83 1549.52 2295.75 1544.94 Q2292.7 1540.33 2292.7 1531.6 Q2292.7 1522.85 2295.75 1518.27 Q2298.83 1513.66 2304.64 1513.66 Z" fill="#000000" fill-rule="evenodd" fill-opacity="1" /><polyline clip-path="url(#clip702)" style="stroke:#000000; stroke-linecap:round; stroke-linejoin:round; stroke-width:2; stroke-opacity:0.1; fill:none" points="
  156.598,1155.91 2352.76,1155.91 
  "/>
<polyline clip-path="url(#clip702)" style="stroke:#000000; stroke-linecap:round; stroke-linejoin:round; stroke-width:2; stroke-opacity:0.1; fill:none" points="
  156.598,795.966 2352.76,795.966 
  "/>
<polyline clip-path="url(#clip702)" style="stroke:#000000; stroke-linecap:round; stroke-linejoin:round; stroke-width:2; stroke-opacity:0.1; fill:none" points="
  156.598,436.02 2352.76,436.02 
  "/>
<polyline clip-path="url(#clip702)" style="stroke:#000000; stroke-linecap:round; stroke-linejoin:round; stroke-width:2; stroke-opacity:0.1; fill:none" points="
  156.598,76.0736 2352.76,76.0736 
  "/>
<polyline clip-path="url(#clip700)" style="stroke:#000000; stroke-linecap:round; stroke-linejoin:round; stroke-width:4; stroke-opacity:1; fill:none" points="
  156.598,1486.45 156.598,47.2441 
  "/>
<polyline clip-path="url(#clip700)" style="stroke:#000000; stroke-linecap:round; stroke-linejoin:round; stroke-width:4; stroke-opacity:1; fill:none" points="
  156.598,1155.91 175.496,1155.91 
  "/>
<polyline clip-path="url(#clip700)" style="stroke:#000000; stroke-linecap:round; stroke-linejoin:round; stroke-width:4; stroke-opacity:1; fill:none" points="
  156.598,795.966 175.496,795.966 
  "/>
<polyline clip-path="url(#clip700)" style="stroke:#000000; stroke-linecap:round; stroke-linejoin:round; stroke-width:4; stroke-opacity:1; fill:none" points="
  156.598,436.02 175.496,436.02 
  "/>
<polyline clip-path="url(#clip700)" style="stroke:#000000; stroke-linecap:round; stroke-linejoin:round; stroke-width:4; stroke-opacity:1; fill:none" points="
  156.598,76.0736 175.496,76.0736 
  "/>
<path clip-path="url(#clip700)" d="M65.0198 1141.71 Q61.4087 1141.71 59.58 1145.28 Q57.7745 1148.82 57.7745 1155.95 Q57.7745 1163.05 59.58 1166.62 Q61.4087 1170.16 65.0198 1170.16 Q68.6541 1170.16 70.4596 1166.62 Q72.2883 1163.05 72.2883 1155.95 Q72.2883 1148.82 70.4596 1145.28 Q68.6541 1141.71 65.0198 1141.71 M65.0198 1138.01 Q70.83 1138.01 73.8855 1142.61 Q76.9642 1147.2 76.9642 1155.95 Q76.9642 1164.67 73.8855 1169.28 Q70.83 1173.86 65.0198 1173.86 Q59.2097 1173.86 56.131 1169.28 Q53.0754 1164.67 53.0754 1155.95 Q53.0754 1147.2 56.131 1142.61 Q59.2097 1138.01 65.0198 1138.01 Z" fill="#000000" fill-rule="evenodd" fill-opacity="1" /><path clip-path="url(#clip700)" d="M85.1818 1167.31 L90.066 1167.31 L90.066 1173.19 L85.1818 1173.19 L85.1818 1167.31 Z" fill="#000000" fill-rule="evenodd" fill-opacity="1" /><path clip-path="url(#clip700)" d="M104.279 1169.26 L120.598 1169.26 L120.598 1173.19 L98.6539 1173.19 L98.6539 1169.26 Q101.316 1166.5 105.899 1161.87 Q110.506 1157.22 111.686 1155.88 Q113.932 1153.35 114.811 1151.62 Q115.714 1149.86 115.714 1148.17 Q115.714 1145.41 113.77 1143.68 Q111.848 1141.94 108.746 1141.94 Q106.547 1141.94 104.094 1142.71 Q101.663 1143.47 98.8854 1145.02 L98.8854 1140.3 Q101.709 1139.16 104.163 1138.59 Q106.617 1138.01 108.654 1138.01 Q114.024 1138.01 117.219 1140.69 Q120.413 1143.38 120.413 1147.87 Q120.413 1150 119.603 1151.92 Q118.816 1153.82 116.709 1156.41 Q116.131 1157.08 113.029 1160.3 Q109.927 1163.49 104.279 1169.26 Z" fill="#000000" fill-rule="evenodd" fill-opacity="1" /><path clip-path="url(#clip700)" d="M62.9365 781.765 Q59.3254 781.765 57.4967 785.33 Q55.6912 788.871 55.6912 796.001 Q55.6912 803.107 57.4967 806.672 Q59.3254 810.214 62.9365 810.214 Q66.5707 810.214 68.3763 806.672 Q70.205 803.107 70.205 796.001 Q70.205 788.871 68.3763 785.33 Q66.5707 781.765 62.9365 781.765 M62.9365 778.061 Q68.7467 778.061 71.8022 782.668 Q74.8809 787.251 74.8809 796.001 Q74.8809 804.728 71.8022 809.334 Q68.7467 813.917 62.9365 813.917 Q57.1264 813.917 54.0477 809.334 Q50.9921 804.728 50.9921 796.001 Q50.9921 787.251 54.0477 782.668 Q57.1264 778.061 62.9365 778.061 Z" fill="#000000" fill-rule="evenodd" fill-opacity="1" /><path clip-path="url(#clip700)" d="M83.0984 807.366 L87.9827 807.366 L87.9827 813.246 L83.0984 813.246 L83.0984 807.366 Z" fill="#000000" fill-rule="evenodd" fill-opacity="1" /><path clip-path="url(#clip700)" d="M111.015 782.76 L99.2095 801.209 L111.015 801.209 L111.015 782.76 M109.788 778.686 L115.668 778.686 L115.668 801.209 L120.598 801.209 L120.598 805.098 L115.668 805.098 L115.668 813.246 L111.015 813.246 L111.015 805.098 L95.4132 805.098 L95.4132 800.584 L109.788 778.686 Z" fill="#000000" fill-rule="evenodd" fill-opacity="1" /><path clip-path="url(#clip700)" d="M63.2606 421.819 Q59.6495 421.819 57.8208 425.383 Q56.0152 428.925 56.0152 436.055 Q56.0152 443.161 57.8208 446.726 Q59.6495 450.267 63.2606 450.267 Q66.8948 450.267 68.7004 446.726 Q70.5291 443.161 70.5291 436.055 Q70.5291 428.925 68.7004 425.383 Q66.8948 421.819 63.2606 421.819 M63.2606 418.115 Q69.0707 418.115 72.1263 422.721 Q75.205 427.305 75.205 436.055 Q75.205 444.781 72.1263 449.388 Q69.0707 453.971 63.2606 453.971 Q57.4504 453.971 54.3717 449.388 Q51.3162 444.781 51.3162 436.055 Q51.3162 427.305 54.3717 422.721 Q57.4504 418.115 63.2606 418.115 Z" fill="#000000" fill-rule="evenodd" fill-opacity="1" /><path clip-path="url(#clip700)" d="M83.4225 447.42 L88.3067 447.42 L88.3067 453.3 L83.4225 453.3 L83.4225 447.42 Z" fill="#000000" fill-rule="evenodd" fill-opacity="1" /><path clip-path="url(#clip700)" d="M109.071 434.156 Q105.922 434.156 104.071 436.309 Q102.242 438.462 102.242 442.212 Q102.242 445.939 104.071 448.115 Q105.922 450.267 109.071 450.267 Q112.219 450.267 114.047 448.115 Q115.899 445.939 115.899 442.212 Q115.899 438.462 114.047 436.309 Q112.219 434.156 109.071 434.156 M118.353 419.504 L118.353 423.763 Q116.594 422.93 114.788 422.49 Q113.006 422.05 111.246 422.05 Q106.617 422.05 104.163 425.175 Q101.733 428.3 101.385 434.619 Q102.751 432.605 104.811 431.541 Q106.871 430.453 109.348 430.453 Q114.557 430.453 117.566 433.624 Q120.598 436.772 120.598 442.212 Q120.598 447.536 117.45 450.754 Q114.302 453.971 109.071 453.971 Q103.075 453.971 99.9039 449.388 Q96.7326 444.781 96.7326 436.055 Q96.7326 427.86 100.621 422.999 Q104.51 418.115 111.061 418.115 Q112.82 418.115 114.603 418.462 Q116.408 418.809 118.353 419.504 Z" fill="#000000" fill-rule="evenodd" fill-opacity="1" /><path clip-path="url(#clip700)" d="M63.5152 61.8723 Q59.9041 61.8723 58.0754 65.4371 Q56.2699 68.9787 56.2699 76.1083 Q56.2699 83.2148 58.0754 86.7796 Q59.9041 90.3212 63.5152 90.3212 Q67.1494 90.3212 68.955 86.7796 Q70.7837 83.2148 70.7837 76.1083 Q70.7837 68.9787 68.955 65.4371 Q67.1494 61.8723 63.5152 61.8723 M63.5152 58.1686 Q69.3254 58.1686 72.3809 62.775 Q75.4596 67.3584 75.4596 76.1083 Q75.4596 84.8351 72.3809 89.4416 Q69.3254 94.0249 63.5152 94.0249 Q57.7051 94.0249 54.6264 89.4416 Q51.5708 84.8351 51.5708 76.1083 Q51.5708 67.3584 54.6264 62.775 Q57.7051 58.1686 63.5152 58.1686 Z" fill="#000000" fill-rule="evenodd" fill-opacity="1" /><path clip-path="url(#clip700)" d="M83.6771 87.474 L88.5614 87.474 L88.5614 93.3536 L83.6771 93.3536 L83.6771 87.474 Z" fill="#000000" fill-rule="evenodd" fill-opacity="1" /><path clip-path="url(#clip700)" d="M108.746 76.9416 Q105.413 76.9416 103.492 78.724 Q101.594 80.5064 101.594 83.6314 Q101.594 86.7564 103.492 88.5388 Q105.413 90.3212 108.746 90.3212 Q112.08 90.3212 114.001 88.5388 Q115.922 86.7333 115.922 83.6314 Q115.922 80.5064 114.001 78.724 Q112.103 76.9416 108.746 76.9416 M104.071 74.9509 Q101.061 74.2102 99.3715 72.15 Q97.7048 70.0898 97.7048 67.1269 Q97.7048 62.9834 100.645 60.576 Q103.608 58.1686 108.746 58.1686 Q113.908 58.1686 116.848 60.576 Q119.788 62.9834 119.788 67.1269 Q119.788 70.0898 118.098 72.15 Q116.432 74.2102 113.445 74.9509 Q116.825 75.7379 118.7 78.0296 Q120.598 80.3213 120.598 83.6314 Q120.598 88.6545 117.52 91.3397 Q114.464 94.0249 108.746 94.0249 Q103.029 94.0249 99.9502 91.3397 Q96.8947 88.6545 96.8947 83.6314 Q96.8947 80.3213 98.7928 78.0296 Q100.691 75.7379 104.071 74.9509 M102.358 67.5667 Q102.358 70.2519 104.024 71.7565 Q105.714 73.2611 108.746 73.2611 Q111.756 73.2611 113.445 71.7565 Q115.158 70.2519 115.158 67.5667 Q115.158 64.8815 113.445 63.3769 Q111.756 61.8723 108.746 61.8723 Q105.714 61.8723 104.024 63.3769 Q102.358 64.8815 102.358 67.5667 Z" fill="#000000" fill-rule="evenodd" fill-opacity="1" /><polyline clip-path="url(#clip702)" style="stroke:#009af9; stroke-linecap:round; stroke-linejoin:round; stroke-width:4; stroke-opacity:1; fill:none" points="
  218.754,1445.72 448.959,1406.24 679.164,1325.51 909.369,87.9763 1139.57,685.717 1369.78,1098.1 1599.98,1315.57 1830.19,621.445 2060.4,600.18 2290.6,406.006 
  
  "/>
<path clip-path="url(#clip700)" d="
M1983.1 198.898 L2279.55 198.898 L2279.55 95.2176 L1983.1 95.2176  Z
  " fill="#ffffff" fill-rule="evenodd" fill-opacity="1"/>
<polyline clip-path="url(#clip700)" style="stroke:#000000; stroke-linecap:round; stroke-linejoin:round; stroke-width:4; stroke-opacity:1; fill:none" points="
  1983.1,198.898 2279.55,198.898 2279.55,95.2176 1983.1,95.2176 1983.1,198.898 
  "/>
<polyline clip-path="url(#clip700)" style="stroke:#009af9; stroke-linecap:round; stroke-linejoin:round; stroke-width:4; stroke-opacity:1; fill:none" points="
  2007.5,147.058 2153.92,147.058 
  "/>
<path clip-path="url(#clip700)" d="M2192.16 166.745 Q2190.35 171.375 2188.64 172.787 Q2186.93 174.199 2184.06 174.199 L2180.65 174.199 L2180.65 170.634 L2183.15 170.634 Q2184.91 170.634 2185.89 169.8 Q2186.86 168.967 2188.04 165.865 L2188.8 163.921 L2178.32 138.412 L2182.83 138.412 L2190.93 158.689 L2199.03 138.412 L2203.55 138.412 L2192.16 166.745 Z" fill="#000000" fill-rule="evenodd" fill-opacity="1" /><path clip-path="url(#clip700)" d="M2210.84 160.402 L2218.48 160.402 L2218.48 134.037 L2210.17 135.703 L2210.17 131.444 L2218.43 129.778 L2223.11 129.778 L2223.11 160.402 L2230.75 160.402 L2230.75 164.338 L2210.84 164.338 L2210.84 160.402 Z" fill="#000000" fill-rule="evenodd" fill-opacity="1" /></svg>
