<?xml version="1.0" encoding="utf-8"?>
<svg xmlns="http://www.w3.org/2000/svg" xmlns:xlink="http://www.w3.org/1999/xlink" width="600" height="400" viewBox="0 0 2400 1600">
<defs>
  <clipPath id="clip900">
    <rect x="0" y="0" width="2400" height="1600"/>
  </clipPath>
</defs>
<path clip-path="url(#clip900)" d="
M0 1600 L2400 1600 L2400 0 L0 0  Z
  " fill="#ffffff" fill-rule="evenodd" fill-opacity="1"/>
<defs>
  <clipPath id="clip901">
    <rect x="480" y="0" width="1681" height="1600"/>
  </clipPath>
</defs>
<path clip-path="url(#clip900)" d="
M186.76 1486.45 L2352.76 1486.45 L2352.76 47.2441 L186.76 47.2441  Z
  " fill="#ffffff" fill-rule="evenodd" fill-opacity="1"/>
<defs>
  <clipPath id="clip902">
    <rect x="186" y="47" width="2167" height="1440"/>
  </clipPath>
</defs>
<polyline clip-path="url(#clip902)" style="stroke:#000000; stroke-linecap:round; stroke-linejoin:round; stroke-width:2; stroke-opacity:0.1; fill:none" points="
  385.695,1486.45 385.695,47.2441 
  "/>
<polyline clip-path="url(#clip902)" style="stroke:#000000; stroke-linecap:round; stroke-linejoin:round; stroke-width:2; stroke-opacity:0.1; fill:none" points="
  891.056,1486.45 891.056,47.2441 
  "/>
<polyline clip-path="url(#clip902)" style="stroke:#000000; stroke-linecap:round; stroke-linejoin:round; stroke-width:2; stroke-opacity:0.1; fill:none" points="
  1396.42,1486.45 1396.42,47.2441 
  "/>
<polyline clip-path="url(#clip902)" style="stroke:#000000; stroke-linecap:round; stroke-linejoin:round; stroke-width:2; stroke-opacity:0.1; fill:none" points="
  1901.78,1486.45 1901.78,47.2441 
  "/>
<polyline clip-path="url(#clip900)" style="stroke:#000000; stroke-linecap:round; stroke-linejoin:round; stroke-width:4; stroke-opacity:1; fill:none" points="
  186.76,1486.45 2352.76,1486.45 
  "/>
<polyline clip-path="url(#clip900)" style="stroke:#000000; stroke-linecap:round; stroke-linejoin:round; stroke-width:4; stroke-opacity:1; fill:none" points="
  385.695,1486.45 385.695,1467.55 
  "/>
<polyline clip-path="url(#clip900)" style="stroke:#000000; stroke-linecap:round; stroke-linejoin:round; stroke-width:4; stroke-opacity:1; fill:none" points="
  891.056,1486.45 891.056,1467.55 
  "/>
<polyline clip-path="url(#clip900)" style="stroke:#000000; stroke-linecap:round; stroke-linejoin:round; stroke-width:4; stroke-opacity:1; fill:none" points="
  1396.42,1486.45 1396.42,1467.55 
  "/>
<polyline clip-path="url(#clip900)" style="stroke:#000000; stroke-linecap:round; stroke-linejoin:round; stroke-width:4; stroke-opacity:1; fill:none" points="
  1901.78,1486.45 1901.78,1467.55 
  "/>
<path clip-path="url(#clip900)" d="M363.403 1517.37 Q359.792 1517.37 357.963 1520.93 Q356.158 1524.47 356.158 1531.6 Q356.158 1538.71 357.963 1542.27 Q359.792 1545.82 363.403 1545.82 Q367.037 1545.82 368.843 1542.27 Q370.672 1538.71 370.672 1531.6 Q370.672 1524.47 368.843 1520.93 Q367.037 1517.37 363.403 1517.37 M363.403 1513.66 Q369.213 1513.66 372.269 1518.27 Q375.348 1522.85 375.348 1531.6 Q375.348 1540.33 372.269 1544.94 Q369.213 1549.52 363.403 1549.52 Q357.593 1549.52 354.514 1544.94 Q351.459 1540.33 351.459 1531.6 Q351.459 1522.85 354.514 1518.27 Q357.593 1513.66 363.403 1513.66 Z" fill="#000000" fill-rule="evenodd" fill-opacity="1" /><path clip-path="url(#clip900)" d="M383.565 1542.97 L388.449 1542.97 L388.449 1548.85 L383.565 1548.85 L383.565 1542.97 Z" fill="#000000" fill-rule="evenodd" fill-opacity="1" /><path clip-path="url(#clip900)" d="M412.801 1530.21 Q416.158 1530.93 418.033 1533.2 Q419.931 1535.47 419.931 1538.8 Q419.931 1543.92 416.412 1546.72 Q412.894 1549.52 406.412 1549.52 Q404.236 1549.52 401.922 1549.08 Q399.63 1548.66 397.176 1547.81 L397.176 1543.29 Q399.121 1544.43 401.435 1545.01 Q403.75 1545.58 406.273 1545.58 Q410.672 1545.58 412.963 1543.85 Q415.278 1542.11 415.278 1538.8 Q415.278 1535.75 413.125 1534.03 Q410.996 1532.3 407.176 1532.3 L403.148 1532.3 L403.148 1528.45 L407.361 1528.45 Q410.81 1528.45 412.639 1527.09 Q414.468 1525.7 414.468 1523.11 Q414.468 1520.45 412.57 1519.03 Q410.695 1517.6 407.176 1517.6 Q405.255 1517.6 403.056 1518.01 Q400.857 1518.43 398.218 1519.31 L398.218 1515.14 Q400.88 1514.4 403.195 1514.03 Q405.533 1513.66 407.593 1513.66 Q412.917 1513.66 416.019 1516.09 Q419.121 1518.5 419.121 1522.62 Q419.121 1525.49 417.477 1527.48 Q415.834 1529.45 412.801 1530.21 Z" fill="#000000" fill-rule="evenodd" fill-opacity="1" /><path clip-path="url(#clip900)" d="M868.197 1517.37 Q864.586 1517.37 862.757 1520.93 Q860.952 1524.47 860.952 1531.6 Q860.952 1538.71 862.757 1542.27 Q864.586 1545.82 868.197 1545.82 Q871.831 1545.82 873.637 1542.27 Q875.466 1538.71 875.466 1531.6 Q875.466 1524.47 873.637 1520.93 Q871.831 1517.37 868.197 1517.37 M868.197 1513.66 Q874.007 1513.66 877.063 1518.27 Q880.141 1522.85 880.141 1531.6 Q880.141 1540.33 877.063 1544.94 Q874.007 1549.52 868.197 1549.52 Q862.387 1549.52 859.308 1544.94 Q856.253 1540.33 856.253 1531.6 Q856.253 1522.85 859.308 1518.27 Q862.387 1513.66 868.197 1513.66 Z" fill="#000000" fill-rule="evenodd" fill-opacity="1" /><path clip-path="url(#clip900)" d="M888.359 1542.97 L893.243 1542.97 L893.243 1548.85 L888.359 1548.85 L888.359 1542.97 Z" fill="#000000" fill-rule="evenodd" fill-opacity="1" /><path clip-path="url(#clip900)" d="M916.276 1518.36 L904.47 1536.81 L916.276 1536.81 L916.276 1518.36 M915.049 1514.29 L920.928 1514.29 L920.928 1536.81 L925.859 1536.81 L925.859 1540.7 L920.928 1540.7 L920.928 1548.85 L916.276 1548.85 L916.276 1540.7 L900.674 1540.7 L900.674 1536.19 L915.049 1514.29 Z" fill="#000000" fill-rule="evenodd" fill-opacity="1" /><path clip-path="url(#clip900)" d="M1374.3 1517.37 Q1370.69 1517.37 1368.86 1520.93 Q1367.05 1524.47 1367.05 1531.6 Q1367.05 1538.71 1368.86 1542.27 Q1370.69 1545.82 1374.3 1545.82 Q1377.93 1545.82 1379.74 1542.27 Q1381.57 1538.71 1381.57 1531.6 Q1381.57 1524.47 1379.74 1520.93 Q1377.93 1517.37 1374.3 1517.37 M1374.3 1513.66 Q1380.11 1513.66 1383.16 1518.27 Q1386.24 1522.85 1386.24 1531.6 Q1386.24 1540.33 1383.16 1544.94 Q1380.11 1549.52 1374.3 1549.52 Q1368.49 1549.52 1365.41 1544.94 Q1362.35 1540.33 1362.35 1531.6 Q1362.35 1522.85 1365.41 1518.27 Q1368.49 1513.66 1374.3 1513.66 Z" fill="#000000" fill-rule="evenodd" fill-opacity="1" /><path clip-path="url(#clip900)" d="M1394.46 1542.97 L1399.34 1542.97 L1399.34 1548.85 L1394.46 1548.85 L1394.46 1542.97 Z" fill="#000000" fill-rule="evenodd" fill-opacity="1" /><path clip-path="url(#clip900)" d="M1409.58 1514.29 L1427.93 1514.29 L1427.93 1518.22 L1413.86 1518.22 L1413.86 1526.7 Q1414.88 1526.35 1415.9 1526.19 Q1416.91 1526 1417.93 1526 Q1423.72 1526 1427.1 1529.17 Q1430.48 1532.34 1430.48 1537.76 Q1430.48 1543.34 1427.01 1546.44 Q1423.53 1549.52 1417.22 1549.52 Q1415.04 1549.52 1412.77 1549.15 Q1410.53 1548.78 1408.12 1548.04 L1408.12 1543.34 Q1410.2 1544.47 1412.42 1545.03 Q1414.65 1545.58 1417.12 1545.58 Q1421.13 1545.58 1423.47 1543.48 Q1425.8 1541.37 1425.8 1537.76 Q1425.8 1534.15 1423.47 1532.04 Q1421.13 1529.94 1417.12 1529.94 Q1415.25 1529.94 1413.37 1530.35 Q1411.52 1530.77 1409.58 1531.65 L1409.58 1514.29 Z" fill="#000000" fill-rule="evenodd" fill-opacity="1" /><path clip-path="url(#clip900)" d="M1879.08 1517.37 Q1875.47 1517.37 1873.64 1520.93 Q1871.84 1524.47 1871.84 1531.6 Q1871.84 1538.71 1873.64 1542.27 Q1875.47 1545.82 1879.08 1545.82 Q1882.72 1545.82 1884.52 1542.27 Q1886.35 1538.71 1886.35 1531.6 Q1886.35 1524.47 1884.52 1520.93 Q1882.72 1517.37 1879.08 1517.37 M1879.08 1513.66 Q1884.89 1513.66 1887.95 1518.27 Q1891.03 1522.85 1891.03 1531.6 Q1891.03 1540.33 1887.95 1544.94 Q1884.89 1549.52 1879.08 1549.52 Q1873.27 1549.52 1870.19 1544.94 Q1867.14 1540.33 1867.14 1531.6 Q1867.14 1522.85 1870.19 1518.27 Q1873.27 1513.66 1879.08 1513.66 Z" fill="#000000" fill-rule="evenodd" fill-opacity="1" /><path clip-path="url(#clip900)" d="M1899.24 1542.97 L1904.13 1542.97 L1904.13 1548.85 L1899.24 1548.85 L1899.24 1542.97 Z" fill="#000000" fill-rule="evenodd" fill-opacity="1" /><path clip-path="url(#clip900)" d="M1924.89 1529.7 Q1921.74 1529.7 1919.89 1531.86 Q1918.06 1534.01 1918.06 1537.76 Q1918.06 1541.49 1919.89 1543.66 Q1921.74 1545.82 1924.89 1545.82 Q1928.04 1545.82 1929.87 1543.66 Q1931.72 1541.49 1931.72 1537.76 Q1931.72 1534.01 1929.87 1531.86 Q1928.04 1529.7 1924.89 1529.7 M1934.17 1515.05 L1934.17 1519.31 Q1932.41 1518.48 1930.61 1518.04 Q1928.83 1517.6 1927.07 1517.6 Q1922.44 1517.6 1919.98 1520.72 Q1917.55 1523.85 1917.21 1530.17 Q1918.57 1528.15 1920.63 1527.09 Q1922.69 1526 1925.17 1526 Q1930.38 1526 1933.39 1529.17 Q1936.42 1532.32 1936.42 1537.76 Q1936.42 1543.08 1933.27 1546.3 Q1930.12 1549.52 1924.89 1549.52 Q1918.9 1549.52 1915.72 1544.94 Q1912.55 1540.33 1912.55 1531.6 Q1912.55 1523.41 1916.44 1518.55 Q1920.33 1513.66 1926.88 1513.66 Q1928.64 1513.66 1930.42 1514.01 Q1932.23 1514.36 1934.17 1515.05 Z" fill="#000000" fill-rule="evenodd" fill-opacity="1" /><polyline clip-path="url(#clip902)" style="stroke:#000000; stroke-linecap:round; stroke-linejoin:round; stroke-width:2; stroke-opacity:0.1; fill:none" points="
  186.76,1405.37 2352.76,1405.37 
  "/>
<polyline clip-path="url(#clip902)" style="stroke:#000000; stroke-linecap:round; stroke-linejoin:round; stroke-width:2; stroke-opacity:0.1; fill:none" points="
  186.76,1124.19 2352.76,1124.19 
  "/>
<polyline clip-path="url(#clip902)" style="stroke:#000000; stroke-linecap:round; stroke-linejoin:round; stroke-width:2; stroke-opacity:0.1; fill:none" points="
  186.76,843.017 2352.76,843.017 
  "/>
<polyline clip-path="url(#clip902)" style="stroke:#000000; stroke-linecap:round; stroke-linejoin:round; stroke-width:2; stroke-opacity:0.1; fill:none" points="
  186.76,561.842 2352.76,561.842 
  "/>
<polyline clip-path="url(#clip902)" style="stroke:#000000; stroke-linecap:round; stroke-linejoin:round; stroke-width:2; stroke-opacity:0.1; fill:none" points="
  186.76,280.668 2352.76,280.668 
  "/>
<polyline clip-path="url(#clip900)" style="stroke:#000000; stroke-linecap:round; stroke-linejoin:round; stroke-width:4; stroke-opacity:1; fill:none" points="
  186.76,1486.45 186.76,47.2441 
  "/>
<polyline clip-path="url(#clip900)" style="stroke:#000000; stroke-linecap:round; stroke-linejoin:round; stroke-width:4; stroke-opacity:1; fill:none" points="
  186.76,1405.37 205.658,1405.37 
  "/>
<polyline clip-path="url(#clip900)" style="stroke:#000000; stroke-linecap:round; stroke-linejoin:round; stroke-width:4; stroke-opacity:1; fill:none" points="
  186.76,1124.19 205.658,1124.19 
  "/>
<polyline clip-path="url(#clip900)" style="stroke:#000000; stroke-linecap:round; stroke-linejoin:round; stroke-width:4; stroke-opacity:1; fill:none" points="
  186.76,843.017 205.658,843.017 
  "/>
<polyline clip-path="url(#clip900)" style="stroke:#000000; stroke-linecap:round; stroke-linejoin:round; stroke-width:4; stroke-opacity:1; fill:none" points="
  186.76,561.842 205.658,561.842 
  "/>
<polyline clip-path="url(#clip900)" style="stroke:#000000; stroke-linecap:round; stroke-linejoin:round; stroke-width:4; stroke-opacity:1; fill:none" points="
  186.76,280.668 205.658,280.668 
  "/>
<path clip-path="url(#clip900)" d="M65.0198 1391.16 Q61.4087 1391.16 59.58 1394.73 Q57.7745 1398.27 57.7745 1405.4 Q57.7745 1412.51 59.58 1416.07 Q61.4087 1419.61 65.0198 1419.61 Q68.6541 1419.61 70.4596 1416.07 Q72.2883 1412.51 72.2883 1405.4 Q72.2883 1398.27 70.4596 1394.73 Q68.6541 1391.16 65.0198 1391.16 M65.0198 1387.46 Q70.83 1387.46 73.8855 1392.07 Q76.9642 1396.65 76.9642 1405.4 Q76.9642 1414.13 73.8855 1418.73 Q70.83 1423.32 65.0198 1423.32 Q59.2097 1423.32 56.131 1418.73 Q53.0754 1414.13 53.0754 1405.4 Q53.0754 1396.65 56.131 1392.07 Q59.2097 1387.46 65.0198 1387.46 Z" fill="#000000" fill-rule="evenodd" fill-opacity="1" /><path clip-path="url(#clip900)" d="M85.1818 1416.77 L90.066 1416.77 L90.066 1422.65 L85.1818 1422.65 L85.1818 1416.77 Z" fill="#000000" fill-rule="evenodd" fill-opacity="1" /><path clip-path="url(#clip900)" d="M101.061 1418.71 L108.7 1418.71 L108.7 1392.35 L100.39 1394.01 L100.39 1389.75 L108.654 1388.09 L113.33 1388.09 L113.33 1418.71 L120.969 1418.71 L120.969 1422.65 L101.061 1422.65 L101.061 1418.71 Z" fill="#000000" fill-rule="evenodd" fill-opacity="1" /><path clip-path="url(#clip900)" d="M134.441 1418.71 L150.76 1418.71 L150.76 1422.65 L128.816 1422.65 L128.816 1418.71 Q131.478 1415.96 136.061 1411.33 Q140.668 1406.67 141.848 1405.33 Q144.093 1402.81 144.973 1401.07 Q145.876 1399.31 145.876 1397.62 Q145.876 1394.87 143.931 1393.13 Q142.01 1391.4 138.908 1391.4 Q136.709 1391.4 134.256 1392.16 Q131.825 1392.92 129.047 1394.47 L129.047 1389.75 Q131.871 1388.62 134.325 1388.04 Q136.779 1387.46 138.816 1387.46 Q144.186 1387.46 147.38 1390.15 Q150.575 1392.83 150.575 1397.32 Q150.575 1399.45 149.765 1401.37 Q148.978 1403.27 146.871 1405.86 Q146.293 1406.53 143.191 1409.75 Q140.089 1412.95 134.441 1418.71 Z" fill="#000000" fill-rule="evenodd" fill-opacity="1" /><path clip-path="url(#clip900)" d="M62.9365 1109.99 Q59.3254 1109.99 57.4967 1113.55 Q55.6912 1117.1 55.6912 1124.23 Q55.6912 1131.33 57.4967 1134.9 Q59.3254 1138.44 62.9365 1138.44 Q66.5707 1138.44 68.3763 1134.9 Q70.205 1131.33 70.205 1124.23 Q70.205 1117.1 68.3763 1113.55 Q66.5707 1109.99 62.9365 1109.99 M62.9365 1106.29 Q68.7467 1106.29 71.8022 1110.89 Q74.8809 1115.48 74.8809 1124.23 Q74.8809 1132.95 71.8022 1137.56 Q68.7467 1142.14 62.9365 1142.14 Q57.1264 1142.14 54.0477 1137.56 Q50.9921 1132.95 50.9921 1124.23 Q50.9921 1115.48 54.0477 1110.89 Q57.1264 1106.29 62.9365 1106.29 Z" fill="#000000" fill-rule="evenodd" fill-opacity="1" /><path clip-path="url(#clip900)" d="M83.0984 1135.59 L87.9827 1135.59 L87.9827 1141.47 L83.0984 1141.47 L83.0984 1135.59 Z" fill="#000000" fill-rule="evenodd" fill-opacity="1" /><path clip-path="url(#clip900)" d="M98.978 1137.54 L106.617 1137.54 L106.617 1111.17 L98.3067 1112.84 L98.3067 1108.58 L106.571 1106.91 L111.246 1106.91 L111.246 1137.54 L118.885 1137.54 L118.885 1141.47 L98.978 1141.47 L98.978 1137.54 Z" fill="#000000" fill-rule="evenodd" fill-opacity="1" /><path clip-path="url(#clip900)" d="M141.177 1110.99 L129.371 1129.43 L141.177 1129.43 L141.177 1110.99 M139.95 1106.91 L145.83 1106.91 L145.83 1129.43 L150.76 1129.43 L150.76 1133.32 L145.83 1133.32 L145.83 1141.47 L141.177 1141.47 L141.177 1133.32 L125.575 1133.32 L125.575 1128.81 L139.95 1106.91 Z" fill="#000000" fill-rule="evenodd" fill-opacity="1" /><path clip-path="url(#clip900)" d="M63.2606 828.816 Q59.6495 828.816 57.8208 832.38 Q56.0152 835.922 56.0152 843.052 Q56.0152 850.158 57.8208 853.723 Q59.6495 857.264 63.2606 857.264 Q66.8948 857.264 68.7004 853.723 Q70.5291 850.158 70.5291 843.052 Q70.5291 835.922 68.7004 832.38 Q66.8948 828.816 63.2606 828.816 M63.2606 825.112 Q69.0707 825.112 72.1263 829.718 Q75.205 834.302 75.205 843.052 Q75.205 851.778 72.1263 856.385 Q69.0707 860.968 63.2606 860.968 Q57.4504 860.968 54.3717 856.385 Q51.3162 851.778 51.3162 843.052 Q51.3162 834.302 54.3717 829.718 Q57.4504 825.112 63.2606 825.112 Z" fill="#000000" fill-rule="evenodd" fill-opacity="1" /><path clip-path="url(#clip900)" d="M83.4225 854.417 L88.3067 854.417 L88.3067 860.297 L83.4225 860.297 L83.4225 854.417 Z" fill="#000000" fill-rule="evenodd" fill-opacity="1" /><path clip-path="url(#clip900)" d="M99.3021 856.362 L106.941 856.362 L106.941 829.996 L98.6308 831.663 L98.6308 827.403 L106.895 825.737 L111.571 825.737 L111.571 856.362 L119.209 856.362 L119.209 860.297 L99.3021 860.297 L99.3021 856.362 Z" fill="#000000" fill-rule="evenodd" fill-opacity="1" /><path clip-path="url(#clip900)" d="M139.232 841.153 Q136.084 841.153 134.232 843.306 Q132.404 845.459 132.404 849.209 Q132.404 852.936 134.232 855.112 Q136.084 857.264 139.232 857.264 Q142.381 857.264 144.209 855.112 Q146.061 852.936 146.061 849.209 Q146.061 845.459 144.209 843.306 Q142.381 841.153 139.232 841.153 M148.515 826.501 L148.515 830.76 Q146.756 829.927 144.95 829.487 Q143.168 829.047 141.408 829.047 Q136.779 829.047 134.325 832.172 Q131.894 835.297 131.547 841.616 Q132.913 839.602 134.973 838.538 Q137.033 837.45 139.51 837.45 Q144.718 837.45 147.728 840.621 Q150.76 843.769 150.76 849.209 Q150.76 854.533 147.612 857.751 Q144.464 860.968 139.232 860.968 Q133.237 860.968 130.066 856.385 Q126.894 851.778 126.894 843.052 Q126.894 834.857 130.783 829.996 Q134.672 825.112 141.223 825.112 Q142.982 825.112 144.765 825.459 Q146.57 825.806 148.515 826.501 Z" fill="#000000" fill-rule="evenodd" fill-opacity="1" /><path clip-path="url(#clip900)" d="M63.5152 547.641 Q59.9041 547.641 58.0754 551.206 Q56.2699 554.747 56.2699 561.877 Q56.2699 568.983 58.0754 572.548 Q59.9041 576.09 63.5152 576.09 Q67.1494 576.09 68.955 572.548 Q70.7837 568.983 70.7837 561.877 Q70.7837 554.747 68.955 551.206 Q67.1494 547.641 63.5152 547.641 M63.5152 543.937 Q69.3254 543.937 72.3809 548.544 Q75.4596 553.127 75.4596 561.877 Q75.4596 570.604 72.3809 575.21 Q69.3254 579.794 63.5152 579.794 Q57.7051 579.794 54.6264 575.21 Q51.5708 570.604 51.5708 561.877 Q51.5708 553.127 54.6264 548.544 Q57.7051 543.937 63.5152 543.937 Z" fill="#000000" fill-rule="evenodd" fill-opacity="1" /><path clip-path="url(#clip900)" d="M83.6771 573.243 L88.5614 573.243 L88.5614 579.122 L83.6771 579.122 L83.6771 573.243 Z" fill="#000000" fill-rule="evenodd" fill-opacity="1" /><path clip-path="url(#clip900)" d="M99.5567 575.187 L107.196 575.187 L107.196 548.822 L98.8854 550.488 L98.8854 546.229 L107.149 544.562 L111.825 544.562 L111.825 575.187 L119.464 575.187 L119.464 579.122 L99.5567 579.122 L99.5567 575.187 Z" fill="#000000" fill-rule="evenodd" fill-opacity="1" /><path clip-path="url(#clip900)" d="M138.908 562.71 Q135.575 562.71 133.654 564.493 Q131.756 566.275 131.756 569.4 Q131.756 572.525 133.654 574.307 Q135.575 576.09 138.908 576.09 Q142.242 576.09 144.163 574.307 Q146.084 572.502 146.084 569.4 Q146.084 566.275 144.163 564.493 Q142.265 562.71 138.908 562.71 M134.232 560.72 Q131.223 559.979 129.533 557.919 Q127.867 555.859 127.867 552.896 Q127.867 548.752 130.807 546.345 Q133.769 543.937 138.908 543.937 Q144.07 543.937 147.01 546.345 Q149.95 548.752 149.95 552.896 Q149.95 555.859 148.26 557.919 Q146.593 559.979 143.607 560.72 Q146.987 561.507 148.862 563.798 Q150.76 566.09 150.76 569.4 Q150.76 574.423 147.681 577.108 Q144.626 579.794 138.908 579.794 Q133.191 579.794 130.112 577.108 Q127.057 574.423 127.057 569.4 Q127.057 566.09 128.955 563.798 Q130.853 561.507 134.232 560.72 M132.519 553.335 Q132.519 556.021 134.186 557.525 Q135.876 559.03 138.908 559.03 Q141.918 559.03 143.607 557.525 Q145.32 556.021 145.32 553.335 Q145.32 550.65 143.607 549.146 Q141.918 547.641 138.908 547.641 Q135.876 547.641 134.186 549.146 Q132.519 550.65 132.519 553.335 Z" fill="#000000" fill-rule="evenodd" fill-opacity="1" /><path clip-path="url(#clip900)" d="M63.4226 266.466 Q59.8115 266.466 57.9828 270.031 Q56.1773 273.573 56.1773 280.702 Q56.1773 287.809 57.9828 291.374 Q59.8115 294.915 63.4226 294.915 Q67.0569 294.915 68.8624 291.374 Q70.6911 287.809 70.6911 280.702 Q70.6911 273.573 68.8624 270.031 Q67.0569 266.466 63.4226 266.466 M63.4226 262.763 Q69.2328 262.763 72.2883 267.369 Q75.367 271.953 75.367 280.702 Q75.367 289.429 72.2883 294.036 Q69.2328 298.619 63.4226 298.619 Q57.6125 298.619 54.5338 294.036 Q51.4782 289.429 51.4782 280.702 Q51.4782 271.953 54.5338 267.369 Q57.6125 262.763 63.4226 262.763 Z" fill="#000000" fill-rule="evenodd" fill-opacity="1" /><path clip-path="url(#clip900)" d="M83.5845 292.068 L88.4688 292.068 L88.4688 297.948 L83.5845 297.948 L83.5845 292.068 Z" fill="#000000" fill-rule="evenodd" fill-opacity="1" /><path clip-path="url(#clip900)" d="M102.682 294.013 L119.001 294.013 L119.001 297.948 L97.0567 297.948 L97.0567 294.013 Q99.7187 291.258 104.302 286.628 Q108.908 281.976 110.089 280.633 Q112.334 278.11 113.214 276.374 Q114.117 274.615 114.117 272.925 Q114.117 270.17 112.172 268.434 Q110.251 266.698 107.149 266.698 Q104.95 266.698 102.496 267.462 Q100.066 268.226 97.2882 269.777 L97.2882 265.054 Q100.112 263.92 102.566 263.341 Q105.02 262.763 107.057 262.763 Q112.427 262.763 115.621 265.448 Q118.816 268.133 118.816 272.624 Q118.816 274.753 118.006 276.675 Q117.219 278.573 115.112 281.165 Q114.533 281.837 111.432 285.054 Q108.33 288.249 102.682 294.013 Z" fill="#000000" fill-rule="evenodd" fill-opacity="1" /><path clip-path="url(#clip900)" d="M138.816 266.466 Q135.205 266.466 133.376 270.031 Q131.57 273.573 131.57 280.702 Q131.57 287.809 133.376 291.374 Q135.205 294.915 138.816 294.915 Q142.45 294.915 144.256 291.374 Q146.084 287.809 146.084 280.702 Q146.084 273.573 144.256 270.031 Q142.45 266.466 138.816 266.466 M138.816 262.763 Q144.626 262.763 147.681 267.369 Q150.76 271.953 150.76 280.702 Q150.76 289.429 147.681 294.036 Q144.626 298.619 138.816 298.619 Q133.006 298.619 129.927 294.036 Q126.871 289.429 126.871 280.702 Q126.871 271.953 129.927 267.369 Q133.006 262.763 138.816 262.763 Z" fill="#000000" fill-rule="evenodd" fill-opacity="1" /><circle clip-path="url(#clip902)" cx="2291.45" cy="1445.72" r="14.4" fill="#009af9" fill-rule="evenodd" fill-opacity="1" stroke="#000000" stroke-opacity="1" stroke-width="3.2"/>
<circle clip-path="url(#clip902)" cx="248.062" cy="87.9763" r="14.4" fill="#009af9" fill-rule="evenodd" fill-opacity="1" stroke="#000000" stroke-opacity="1" stroke-width="3.2"/>
<path clip-path="url(#clip900)" d="
M1987.46 198.898 L2280.56 198.898 L2280.56 95.2176 L1987.46 95.2176  Z
  " fill="#ffffff" fill-rule="evenodd" fill-opacity="1"/>
<polyline clip-path="url(#clip900)" style="stroke:#000000; stroke-linecap:round; stroke-linejoin:round; stroke-width:4; stroke-opacity:1; fill:none" points="
  1987.46,198.898 2280.56,198.898 2280.56,95.2176 1987.46,95.2176 1987.46,198.898 
  "/>
<circle clip-path="url(#clip900)" cx="2083.73" cy="147.058" r="23.04" fill="#009af9" fill-rule="evenodd" fill-opacity="1" stroke="#000000" stroke-opacity="1" stroke-width="5.12"/>
<path clip-path="url(#clip900)" d="M2193.84 166.745 Q2192.03 171.375 2190.32 172.787 Q2188.6 174.199 2185.73 174.199 L2182.33 174.199 L2182.33 170.634 L2184.83 170.634 Q2186.59 170.634 2187.56 169.8 Q2188.53 168.967 2189.71 165.865 L2190.48 163.921 L2179.99 138.412 L2184.51 138.412 L2192.61 158.689 L2200.71 138.412 L2205.22 138.412 L2193.84 166.745 Z" fill="#000000" fill-rule="evenodd" fill-opacity="1" /><path clip-path="url(#clip900)" d="M2212.52 160.402 L2220.15 160.402 L2220.15 134.037 L2211.84 135.703 L2211.84 131.444 L2220.11 129.778 L2224.78 129.778 L2224.78 160.402 L2232.42 160.402 L2232.42 164.338 L2212.52 164.338 L2212.52 160.402 Z" fill="#000000" fill-rule="evenodd" fill-opacity="1" /></svg>
